<?xml version="1.0" standalone="no"?>
<!DOCTYPE svg PUBLIC "-//W3C//DTD SVG 1.1//EN" "http://www.w3.org/Graphics/SVG/1.1/DTD/svg11.dtd" >
<svg>
<metadata>
Created by FontForge 20110222 at Mon Oct  5 04:15:00 2015
 By www-data
Copyright (c) 2013 Wizards of the Coast, a Hasbro Subsidiary. All rights reserved.
</metadata>
<defs>
<font id="BelerenSmallCaps-Bold" horiz-adv-x="1269" >
  <font-face 
    font-family="Beleren Small Caps"
    font-weight="700"
    font-variant="small-caps"
    font-stretch="normal"
    units-per-em="2048"
    panose-1="2 0 8 3 0 0 0 2 0 4"
    ascent="1638"
    descent="-410"
    x-height="1106"
    cap-height="1434"
    bbox="-82 -512 2675 1917"
    underline-thickness="102"
    underline-position="-102"
    unicode-range="U+000D-FB04"
  />
<missing-glyph horiz-adv-x="748" 
d="M68 0v1365h544v-1365h-544zM136 68h408v1229h-408v-1229z" />
    <glyph glyph-name="uniFB03" unicode="ffi" horiz-adv-x="2482" 
d="M92 0v8l113 70v950l-113 70v8h780v-338h-8q-11 40 -22 67.5t-33.5 59.5t-52 52t-78 33t-111.5 13h-65v-379h301v-8l-119 -104h-182v-258q0 -48 11 -87t28 -63t41.5 -42.5t46 -27.5t47.5 -16v-8h-584zM985 0v8l113 70v950l-113 70v8h780v-338h-8q-11 40 -22 67.5
t-33.5 59.5t-52 52t-78 33t-111.5 13h-65v-379h301v-8l-119 -104h-182v-258q0 -48 11 -87t28 -63t41.5 -42.5t46 -27.5t47.5 -16v-8h-584zM1868 0v8l112 70v950l-112 70v8h522v-8l-113 -70v-950l113 -70v-8h-522z" />
    <glyph glyph-name="uniFB04" unicode="ffl" horiz-adv-x="2695" 
d="M92 0v8l113 70v950l-113 70v8h780v-338h-8q-11 40 -22 67.5t-33.5 59.5t-52 52t-78 33t-111.5 13h-65v-379h301v-8l-119 -104h-182v-258q0 -48 11 -87t28 -63t41.5 -42.5t46 -27.5t47.5 -16v-8h-584zM985 0v8l113 70v950l-113 70v8h780v-338h-8q-11 40 -22 67.5
t-33.5 59.5t-52 52t-78 33t-111.5 13h-65v-379h301v-8l-119 -104h-182v-258q0 -48 11 -87t28 -63t41.5 -42.5t46 -27.5t47.5 -16v-8h-584zM1868 0v8l112 70v950l-112 70v8h583v-8l-174 -70v-905h123q63 0 109 17.5t75.5 53.5t46.5 70.5t35 89.5h9v-354h-807z" />
    <glyph glyph-name=".notdef" horiz-adv-x="748" 
d="M68 0v1365h544v-1365h-544zM136 68h408v1229h-408v-1229z" />
    <glyph glyph-name="glyph1" horiz-adv-x="2048" 
 />
    <glyph glyph-name="glyph1" horiz-adv-x="2048" 
 />
    <glyph glyph-name="glyph2" horiz-adv-x="682" 
 />
    <glyph glyph-name="uni000D" unicode="&#xd;" horiz-adv-x="0" 
 />
    <glyph glyph-name="space" unicode=" " horiz-adv-x="491" 
 />
    <glyph glyph-name="exclam" unicode="!" horiz-adv-x="606" 
d="M109 166v8q45 15 109 80t81 113h8q17 -48 81.5 -113t109.5 -80v-8l-191 -186h-8zM145 1434h318l-62 -775l-94 -237h-8l-94 237z" />
    <glyph glyph-name="quotedbl" unicode="&#x22;" horiz-adv-x="829" 
d="M102 1516h236l-41 -406l-72 -168h-8l-74 168zM492 1516h235l-41 -406l-72 -168h-8l-74 168z" />
    <glyph glyph-name="numbersign" unicode="#" 
d="M123 395v205h219l57 205h-276v205h332l123 444h157l-123 -444h205l123 444h158l-123 -444h172v-205h-227l-58 -205h285v-205h-340l-115 -415h-157l114 415h-205l-114 -415h-158l115 415h-164zM500 600h205l57 205h-205z" />
    <glyph glyph-name="dollar" unicode="$" horiz-adv-x="927" 
d="M82 981q0 130 84.5 210t224.5 95l74 320h10l76 -324q126 -18 219 -70l-27 -297h-8q-36 135 -100.5 214t-159.5 79q-64 0 -100.5 -36t-36.5 -95q0 -45 28.5 -84.5t74.5 -71t101 -64t110 -70.5t101 -82.5t74.5 -108t28.5 -139.5q0 -121 -84 -200t-221 -103l-76 -324h-10
l-74 313q-158 9 -295 84l25 301h8q19 -60 44 -110t60 -95.5t83.5 -71.5t105.5 -26q70 0 114 40t44 112q0 49 -27.5 91.5t-71.5 75t-97 65t-106 68.5t-97 77t-71.5 99.5t-27.5 127.5z" />
    <glyph glyph-name="percent" unicode="%" horiz-adv-x="1761" 
d="M72 1032q0 197 98.5 309.5t247.5 112.5t247.5 -112.5t98.5 -309.5t-98.5 -309.5t-247.5 -112.5t-247.5 112.5t-98.5 309.5zM283 1032q0 -86 5 -143t19 -104.5t41.5 -70t69.5 -22.5t69.5 22.5t41.5 70t19 104.5t5 143t-5 143t-19 104.5t-41.5 70t-69.5 22.5t-69.5 -22.5
t-41.5 -70t-19 -104.5t-5 -143zM328 6l942 1428h166l2 -7l-942 -1427h-166zM997 401q0 197 98.5 309.5t247.5 112.5t248 -112.5t99 -309.5t-99 -309t-248 -112t-247.5 112t-98.5 309zM1208 401q0 -86 5 -143t19 -104.5t41.5 -70t69.5 -22.5t69.5 22.5t42 69.5t19.5 104.5
t5 143.5t-5 143.5t-19.5 104.5t-42 69.5t-69.5 22.5t-69.5 -22.5t-41.5 -70t-19 -104.5t-5 -143z" />
    <glyph glyph-name="ampersand" unicode="&#x26;" horiz-adv-x="1290" 
d="M72 389q0 147 75.5 249.5t194.5 154.5l-8 12q-119 160 -119 289q0 117 94.5 199.5t259.5 82.5q99 0 192.5 -34.5t164.5 -86.5l-138 -241l-6 2q0 116 -52 182t-144 66q-60 0 -98.5 -36.5t-38.5 -88.5q0 -22 4 -40t20 -44.5t24.5 -39t40 -53.5t44.5 -59l415 -549
q25 36 25 107q0 90 -43 154.5t-127 93.5v8h346q-4 -273 -137 -449l199 -262l-5 -6h-321l-60 80q-78 -50 -160.5 -75t-191.5 -25q-201 0 -325.5 108t-124.5 301zM328 451q0 -150 86.5 -244t230.5 -94q97 0 174 41l-407 546q-39 -37 -61.5 -106t-22.5 -143z" />
    <glyph glyph-name="quotesingle" unicode="'" horiz-adv-x="440" 
d="M102 1516h236l-41 -406l-72 -168h-8l-74 168z" />
    <glyph glyph-name="parenleft" unicode="(" horiz-adv-x="710" 
d="M113 561q0 162 38 310.5t96.5 256t132.5 194.5t142.5 138.5t130.5 75.5l6 -2q-21 -26 -30.5 -38.5t-41.5 -63.5t-52 -97t-48.5 -129.5t-45.5 -171t-29.5 -212t-12.5 -261.5q0 -136 12.5 -260t29.5 -211t46 -170.5t48.5 -129t51.5 -96.5t41.5 -63.5t30.5 -38.5l-6 -2
q-51 20 -107.5 59.5t-118 99.5t-117 143.5t-100 181.5t-71 224.5t-26.5 262.5z" />
    <glyph glyph-name="parenright" unicode=")" horiz-adv-x="710" 
d="M51 -408q21 26 30.5 38.5t41.5 63.5t52 97t48.5 129.5t45.5 171t29.5 212t12.5 261.5q0 136 -12.5 260t-29.5 211t-46 170.5t-48.5 129t-51.5 96.5t-41.5 63.5t-30.5 38.5l6 2q62 -24 130.5 -75t143 -138t133 -193.5t96.5 -254.5t38 -310t-38 -310.5t-96.5 -256
t-133 -194.5t-143 -138.5t-130.5 -75.5z" />
    <glyph glyph-name="asterisk" unicode="*" horiz-adv-x="542" 
d="M41 1278l2 6l76 43h8q6 -8 17.5 -20.5t46 -40t67.5 -41.5q-4 36 -18 73.5t-26 57.5l-13 20v8l65 64h8l68 -64v-8q-51 -71 -59 -151q33 14 65.5 39.5t49.5 43.5l16 19h8l78 -43l2 -6l-39 -84h-8q-44 12 -101 12q-43 0 -63 -6q24 -27 59 -50.5t58 -33.5l22 -10l4 -6
l-16 -86l-8 -4l-91 10l-4 6q-6 90 -45 160q-17 -31 -28 -71t-13 -65l-2 -24l-2 -6l-94 -10l-6 4l-16 86l2 6q86 33 139 94q-20 6 -62 6q-24 0 -49.5 -3t-38.5 -6l-14 -3h-8z" />
    <glyph glyph-name="plus" unicode="+" 
d="M154 600v205h374v379h213v-379h375v-205h-375v-379h-213v379h-374z" />
    <glyph glyph-name="comma" unicode="," horiz-adv-x="565" 
d="M98 172v8l181 176h8l180 -176v-8l-262 -510l-8 4q26 107 26 197q0 203 -125 309z" />
    <glyph glyph-name="hyphen" unicode="-" horiz-adv-x="1071" 
d="M72 512v8l135 217h792v-8l-135 -217h-792z" />
    <glyph glyph-name="period" unicode="." horiz-adv-x="565" 
d="M88 166v8q45 15 109.5 80t81.5 113h8q17 -48 81 -113t109 -80v-8l-190 -186h-8z" />
    <glyph glyph-name="slash" unicode="/" horiz-adv-x="786" 
d="M20 -94l560 1622h186l-559 -1622h-187z" />
    <glyph glyph-name="zero" unicode="0" 
d="M92 717q0 345 150 541t393 196t393 -196t150 -541t-150 -541t-393 -196t-393 196t-150 541zM410 717q0 -138 5 -233t19.5 -176t39.5 -128t64.5 -72.5t96.5 -25.5t96.5 25.5t64.5 72.5t39.5 128t19.5 176t5 233t-5 233t-19.5 176t-39.5 128t-64.5 72.5t-96.5 25.5
t-96.5 -25.5t-64.5 -72.5t-39.5 -128t-19.5 -176t-5 -233z" />
    <glyph glyph-name="one" unicode="1" horiz-adv-x="798" 
d="M41 0v20l215 78v1063l-4 6h-211v21q103 25 245 102.5t236 163.5h21v-1130q0 -136 53 -208t162 -96v-20h-717z" />
    <glyph glyph-name="two" unicode="2" horiz-adv-x="1062" 
d="M10 8q314 373 478.5 644t164.5 464q0 111 -52.5 168t-133.5 57q-94 0 -142.5 -67t-48.5 -164q0 -58 17 -104l-6 -7l-228 287q79 75 187.5 121.5t232.5 46.5q93 0 177 -24t150 -68.5t105 -116t39 -160.5q0 -84 -28.5 -159.5t-91.5 -156t-128 -149.5t-175.5 -185.5
t-196.5 -219.5h504l6 2l102 223h8v-440h-936z" />
    <glyph glyph-name="three" unicode="3" horiz-adv-x="962" 
d="M20 131l177 217l6 -2q0 -107 50 -180.5t148 -73.5q94 0 143.5 68t49.5 194q0 91 -21 160t-77.5 115.5t-145.5 46.5l-110 104v8h51q86 0 147.5 50t89 122.5t27.5 155.5q0 113 -44.5 169t-119.5 56q-88 0 -133 -69t-45 -166l-6 -2l-164 178q145 172 383 172
q185 0 305.5 -88.5t120.5 -249.5q0 -129 -78 -220t-184 -124v-8q142 -35 226.5 -122.5t84.5 -231.5q0 -200 -128.5 -315t-358.5 -115q-243 0 -394 151z" />
    <glyph glyph-name="four" unicode="4" horiz-adv-x="1124" 
d="M0 451l868 1085h9v-1073h186v-8l-160 -140h-26v-315q-65 -2 -144.5 -15t-134.5 -36h-8v366h-440l-148 129zM176 469l2 -6h412v526h-8z" />
    <glyph glyph-name="five" unicode="5" horiz-adv-x="1001" 
d="M72 131l153 229l6 -2q0 -114 70.5 -185t183.5 -71q118 0 184 65.5t66 178.5q0 50 -19 99t-65.5 97.5t-115 85.5t-177 60t-241.5 23l80 723h598l69 102h8v-317h-569l-27 -263q138 -2 251.5 -32t190.5 -79.5t130.5 -116.5t77.5 -140.5t24 -153.5q0 -94 -31.5 -175
t-91.5 -144t-157 -99t-219 -36q-113 0 -211 40t-168 111z" />
    <glyph glyph-name="six" unicode="6" horiz-adv-x="1204" 
d="M92 584q0 179 70.5 340.5t190 277.5t285 184t347.5 68v-82q-157 -1 -276 -72t-188.5 -192t-96.5 -285l182 72h72q185 0 299.5 -124.5t114.5 -317.5q0 -200 -136 -336.5t-335 -136.5q-85 0 -161 20t-144 66t-117.5 114.5t-78 171.5t-28.5 232zM410 625q0 -286 54 -414.5
t161 -128.5q54 0 93.5 44.5t58 110.5t18.5 140q0 217 -62.5 316.5t-200.5 99.5h-112q-10 -88 -10 -168z" />
    <glyph glyph-name="seven" unicode="7" horiz-adv-x="970" 
d="M31 952v482h938l2 -7l-469 -1427q-200 0 -332 -51l-4 6l588 1264h-418q-220 0 -297 -267h-8z" />
    <glyph glyph-name="eight" unicode="8" horiz-adv-x="1220" 
d="M92 385q0 296 297 369v8q-109 34 -180.5 113.5t-71.5 214.5q0 163 136.5 263.5t336.5 100.5t336.5 -100.5t136.5 -263.5q0 -135 -71.5 -214.5t-180.5 -113.5v-8q297 -73 297 -369q0 -183 -144 -294t-374 -111t-374 111t-144 294zM399 369q0 -129 53 -208t158 -79t158 79
t53 208q0 284 -211 362q-211 -79 -211 -362zM434 1104q0 -132 47.5 -222t128.5 -120q81 30 128.5 120t47.5 222q0 120 -47.5 184t-128.5 64t-128.5 -64t-47.5 -184z" />
    <glyph glyph-name="nine" unicode="9" horiz-adv-x="1204" 
d="M113 981q0 130 66.5 239.5t174.5 171.5t230 62q80 0 153.5 -20t142.5 -66t120 -114t81.5 -172t30.5 -232q0 -173 -45.5 -316.5t-126.5 -245t-193.5 -171.5t-245 -103.5t-282.5 -33.5v81q249 2 389 137.5t174 413.5l-184 -73h-72q-185 0 -299 124.5t-114 317.5zM410 1057
q0 -217 62 -316.5t200 -99.5h114q9 115 9 168q0 286 -54 414.5t-161 128.5q-54 0 -93.5 -44.5t-58 -110.5t-18.5 -140z" />
    <glyph glyph-name="colon" unicode=":" horiz-adv-x="565" 
d="M88 166v8q45 15 109.5 80t81.5 113h8q17 -48 81 -113t109 -80v-8l-190 -186h-8zM88 782v9l191 186h8l190 -186v-9q-45 -15 -109 -79.5t-81 -112.5h-8q-17 48 -81.5 112.5t-109.5 79.5z" />
    <glyph glyph-name="semicolon" unicode=";" horiz-adv-x="565" 
d="M88 782v9l191 186h8l190 -186v-9q-45 -15 -109 -79.5t-81 -112.5h-8q-17 48 -81.5 112.5t-109.5 79.5zM98 172v8l181 176h8l180 -176v-8l-262 -510l-8 4q26 107 26 197q0 203 -125 309z" />
    <glyph glyph-name="less" unicode="&#x3c;" 
d="M154 612v181l886 360l76 -184l-672 -267l672 -266l-76 -184z" />
    <glyph glyph-name="equal" unicode="=" 
d="M154 395v205h962v-205h-962zM154 805v205h962v-205h-962z" />
    <glyph glyph-name="greater" unicode="&#x3e;" 
d="M154 436l671 266l-671 267l75 184l887 -360v-181l-887 -360z" />
    <glyph glyph-name="question" unicode="?" horiz-adv-x="1097" 
d="M61 1286q81 74 190 121t236 47q210 0 338.5 -101t128.5 -268q0 -163 -102.5 -286t-286.5 -201l-78 -176h-8l-112 246q70 29 120 66.5t78.5 75.5t45 87t21.5 91t5 97q0 124 -46 195.5t-134 71.5q-85 0 -131.5 -67.5t-46.5 -158.5q0 -79 16 -122l-6 -7zM289 166v8
q45 15 109 80t81 113h8q17 -48 81.5 -113t109.5 -80v-8l-191 -186h-8z" />
    <glyph glyph-name="at" unicode="@" horiz-adv-x="1597" 
d="M72 502q0 202 98 374.5t265.5 272.5t363.5 100t363.5 -100t265.5 -272.5t98 -374.5q0 -152 -58.5 -293t-160.5 -240l-453 451l68 395q-28 4 -31 4q-69 0 -123 -47.5t-83.5 -120t-44.5 -145t-15 -135.5q0 -79 30.5 -116.5t79.5 -37.5q73 0 129 41l33 -53q-33 -36 -90 -63
t-121 -27q-148 0 -231.5 79t-83.5 212q0 91 36 180.5t99.5 162t161 117.5t209.5 45q150 0 311 -59l-53 -293q-23 -141 -23 -194q0 -85 37.5 -133t99.5 -48q68 0 108 80t40 238q0 130 -47.5 248t-127.5 202.5t-190.5 134.5t-232.5 50t-232.5 -50t-190.5 -134.5t-127.5 -202.5
t-47.5 -248q0 -175 80 -321t217 -230t299 -84q57 0 85.5 26.5t28.5 73.5q0 43 -22 90l6 4l229 -227q-143 -80 -327 -80q-195 0 -362 100.5t-265 273t-98 374.5z" />
    <glyph glyph-name="A" unicode="A" horiz-adv-x="1308" 
d="M-31 0v8l103 70l587 1417h9l569 -1417l102 -70v-8h-399l-160 428l-172 -111h-260l-29 -69q-22 -58 -22 -105q0 -101 109 -135v-8h-437zM408 467h358l-166 451h-8z" />
    <glyph glyph-name="B" unicode="B" horiz-adv-x="1230" 
d="M92 0v8l113 70v1114h254v8l-367 225v9h502q246 0 378 -87t132 -266q0 -107 -64 -182.5t-180 -116.5v-8q146 -41 227.5 -139t81.5 -244q0 -198 -121.5 -294.5t-351.5 -96.5h-604zM502 133h92q76 0 128 19.5t79.5 57t39 84t11.5 109.5q0 136 -77 226t-236 155v9
q130 0 194 72.5t64 197.5q0 113 -51 175t-171 62h-73v-1167z" />
    <glyph glyph-name="C" unicode="C" horiz-adv-x="1212" 
d="M92 717q0 165 49.5 304t135 233.5t202 147t248.5 52.5q221 0 403 -108l-49 -394h-8q-18 58 -36 104t-47 98t-61 86.5t-77 57.5t-96 23q-162 0 -244 -148.5t-82 -435.5q0 -624 324 -624q65 0 117.5 29.5t91.5 85.5t66 114.5t54 138.5h9l49 -383q-185 -118 -416 -118
q-138 0 -253 47t-200 137.5t-132.5 232t-47.5 320.5z" />
    <glyph glyph-name="D" unicode="D" horiz-adv-x="1427" 
d="M92 0v8l113 70v1114h254v8l-367 225v9h563q208 0 362.5 -90t236 -252t81.5 -375q0 -342 -180.5 -529.5t-499.5 -187.5h-563zM512 133h143q174 0 258 144.5t84 439.5q0 306 -83 444.5t-259 138.5h-143v-1167z" />
    <glyph glyph-name="E" unicode="E" horiz-adv-x="1112" 
d="M92 0v8l113 70v1278l-113 69v9h897v-420h-8q-13 54 -36 100t-59.5 87t-93.5 65t-128 24h-152v-477h416v-8l-166 -146h-250v-516h193q70 0 127.5 27t94 72.5t59.5 94t36 103.5h8v-440h-938z" />
    <glyph glyph-name="F" unicode="F" horiz-adv-x="1003" 
d="M92 0v8l113 70v1278l-113 69v9h901v-420h-8q-13 54 -36 100t-59.5 87t-93.5 65t-128 24h-156v-487h389v-8l-166 -146h-223v-405q0 -48 11 -87t28 -63t41.5 -42.5t46 -27.5t47.5 -16v-8h-594z" />
    <glyph glyph-name="G" unicode="G" horiz-adv-x="1411" 
d="M92 717q0 164 54 303.5t146.5 234t216 147t261.5 52.5q307 0 483 -176l-227 -315l-6 6q6 54 6 90q0 115 -61.5 188.5t-184.5 73.5q-160 0 -255 -152t-95 -432q0 -319 89 -471.5t280 -152.5q104 0 192 43v215q0 140 -65 218.5t-189 119.5v8h541v-737h-8l-185 98
q-153 -98 -348 -98q-140 0 -257 47t-204 137.5t-135.5 232t-48.5 320.5z" />
    <glyph glyph-name="H" unicode="H" horiz-adv-x="1443" 
d="M92 0v8l113 70v1286l-113 61v9h549v-9l-129 -61v-530h420v346q0 68 -8.5 113.5t-28 71t-39.5 37.5t-53 23v9h549v-9l-113 -61v-1286l113 -70v-8h-549v8l129 70v723l-156 -121h-264v-426q0 -68 8.5 -113.5t28 -71.5t39.5 -38t53 -23v-8h-549z" />
    <glyph glyph-name="I" unicode="I" horiz-adv-x="716" 
d="M92 0v8l113 70v1278l-113 69v9h533v-9l-113 -69v-1278l113 -70v-8h-533z" />
    <glyph glyph-name="J" unicode="J" horiz-adv-x="727" 
d="M-51 1425v9h686v-9l-113 -69v-697q0 -170 -31 -306t-85.5 -224t-119.5 -142.5t-141 -80.5l-6 2q39 53 57.5 108t18.5 154v911q0 295 -266 344z" />
    <glyph glyph-name="K" unicode="K" horiz-adv-x="1351" 
d="M92 0v8l113 70v1278l-113 69v9h574v-9l-154 -69v-1102q0 -54 9 -95.5t22.5 -66.5t35.5 -43t41 -26t46 -15v-8h-574zM541 748l383 481q55 71 55 121q0 55 -74 75v9h441v-9l-121 -69l-406 -504l445 -776l118 -68v-8h-419z" />
    <glyph glyph-name="L" unicode="L" horiz-adv-x="1034" 
d="M92 0v8l113 70v1278l-113 69v9h594v-9l-174 -69v-1213h197q215 0 297 287h8v-430h-922z" />
    <glyph glyph-name="M" unicode="M" horiz-adv-x="1720" 
d="M92 0v8l113 70v1276l-113 71v9h404l374 -953h9l368 953h381v-9l-112 -69v-1278l112 -70v-8h-420v934h-8l-397 -1026h-8l-408 995h-8v-903h-287z" />
    <glyph glyph-name="N" unicode="N" horiz-adv-x="1382" 
d="M51 1425v9h395l549 -787h9v522q0 59 -7 99.5t-18.5 66.5t-36 43.5t-50.5 27t-71 19.5v9h469v-9l-112 -69v-1450h-9l-782 1112h-8v-754q0 -74 8.5 -118.5t33.5 -72t54.5 -40t85.5 -25.5v-8h-469v8l113 70v1200l-51 78z" />
    <glyph glyph-name="O" unicode="O" horiz-adv-x="1470" 
d="M92 717q0 172 50.5 312.5t138 232.5t204.5 142t252 50q58 0 105 -8l-99 -422h-10l-65 289q-238 -64 -238 -596q0 -604 305 -604t305 604q0 367 -112 512l53 178q183 -74 290 -253t107 -437q0 -172 -50 -312.5t-137.5 -232.5t-204 -142t-251.5 -50t-251.5 50t-204 142
t-137.5 232.5t-50 312.5z" />
    <glyph glyph-name="P" unicode="P" horiz-adv-x="1208" 
d="M92 0v8l113 70v1114h254v8l-367 225v9h572q240 0 382 -105t142 -303q0 -102 -42.5 -186t-113.5 -136.5t-158.5 -81t-181.5 -28.5h-8l-172 111v-461q0 -48 11 -87t28 -63t41.5 -42.5t46 -27.5t47.5 -16v-8h-594zM512 737h94q254 0 254 277q0 144 -67 210t-220 66h-61v-553
z" />
    <glyph glyph-name="Q" unicode="Q" horiz-adv-x="1470" 
d="M92 717q0 172 50 312.5t137.5 232.5t204 142t251.5 50t251.5 -50t204 -142t137.5 -232.5t50 -312.5q0 -297 -139 -486l141 -321l-6 -4l-475 450q141 0 141 361q0 604 -305 604t-305 -604t305 -604q43 0 66.5 26.5t23.5 108.5l359 -338l-6 -4l-308 86q-66 -12 -135 -12
q-135 0 -251.5 50t-204 142t-137.5 232.5t-50 312.5z" />
    <glyph glyph-name="R" unicode="R" horiz-adv-x="1300" 
d="M92 0v8l113 70v1114h254v8l-367 225v9h572q85 0 162.5 -13.5t146 -43.5t118 -73t78.5 -106.5t29 -140.5q0 -132 -77 -228t-208 -133l351 -622l88 -66v-8h-400l-403 770v8h59q141 0 201.5 69.5t60.5 199.5q0 119 -69.5 181t-227.5 62h-61v-1046q0 -48 11 -87t28 -63
t41.5 -42.5t46 -27.5t47.5 -16v-8h-594z" />
    <glyph glyph-name="S" unicode="S" horiz-adv-x="1042" 
d="M72 1051q0 189 127 296t323 107q98 0 196 -25.5t171 -62.5l-29 -362h-8q-24 75 -51.5 131t-66.5 102t-92.5 70t-119.5 24q-77 0 -130.5 -51t-53.5 -127q0 -62 35.5 -114t92 -90.5t125 -76.5t137.5 -81.5t125.5 -95t92 -127.5t35.5 -169q0 -99 -39.5 -179.5t-108 -132.5
t-158 -79.5t-190.5 -27.5q-217 0 -403 88l29 372h8q119 -338 366 -338q94 0 151.5 52.5t57.5 144.5q0 69 -34.5 126.5t-89 98t-121 78.5t-133 79.5t-121 90t-89 120t-34.5 159.5z" />
    <glyph glyph-name="T" unicode="T" horiz-adv-x="1126" 
d="M20 973v461h1086v-461h-8q-13 61 -35 113.5t-57.5 100.5t-89.5 75.5t-121 27.5h-78v-1046q0 -48 11 -87t28 -63t41.5 -42.5t46 -27.5t47.5 -16v-8h-655v8l174 70v1212h-64q-57 0 -105.5 -18.5t-82.5 -48.5t-60.5 -72t-42.5 -85.5t-26 -92.5h-9z" />
    <glyph glyph-name="U" unicode="U" horiz-adv-x="1320" 
d="M72 1425v9h420v-1004q0 -297 243 -297q117 0 182.5 76t65.5 252v719q0 67 -12.5 114t-37 72.5t-47.5 37.5t-57 21v9h441v-9l-113 -69v-885q0 -110 -26 -195.5t-69.5 -140.5t-106 -90.5t-131 -50t-148.5 -14.5q-72 0 -134.5 11t-130.5 44.5t-116.5 86.5t-79.5 145.5
t-31 213.5v875z" />
    <glyph glyph-name="V" unicode="V" horiz-adv-x="1228" 
d="M-20 1425v9h415l289 -842h8l203 596q20 61 20 100q0 64 -37.5 98t-95.5 39v9h467v-9l-119 -69l-505 -1450h-9l-514 1450z" />
    <glyph glyph-name="W" unicode="W" horiz-adv-x="1843" 
d="M-20 1425v9h397l295 -846h8l305 887h8l301 -887h9l208 581q19 58 19 109q0 133 -141 147v9h475v-9l-119 -69l-512 -1428h-8l-299 873h-8l-300 -873h-8l-512 1428z" />
    <glyph glyph-name="X" unicode="X" horiz-adv-x="1327" 
d="M0 0v8l113 70l409 594l-401 684l-101 69v9h410l285 -486l186 271q37 52 37 110q0 38 -23 64t-71 32v9h459v-9l-113 -69l-387 -559l426 -721l98 -68v-8h-409l-306 520l-211 -305q-36 -52 -36 -111q0 -83 94 -96v-8h-459z" />
    <glyph glyph-name="Y" unicode="Y" horiz-adv-x="1228" 
d="M-20 1425v9h419l287 -598h8l172 340q43 87 43 143q0 96 -116 106v9h456v-9l-125 -59l-352 -707v-415q0 -48 11 -87t28 -63t41.5 -42.5t46 -27.5t47.5 -16v-8h-655v8l174 70v553l-361 735z" />
    <glyph glyph-name="Z" unicode="Z" horiz-adv-x="1079" 
d="M45 6l602 1284h-215q-71 0 -128 -28t-94 -75t-60 -100.5t-35 -113.5h-9v461h914l4 -7l-604 -1284h242q71 0 128 28t93.5 75.5t59.5 100.5t36 114h8v-461h-940z" />
    <glyph glyph-name="bracketleft" unicode="[" horiz-adv-x="710" 
d="M113 -410v1946h546v-8l-165 -105h-115v-1720h115l165 -104v-9h-546z" />
    <glyph glyph-name="backslash" unicode="\" horiz-adv-x="727" 
d="M20 1528h187l559 -1622h-186z" />
    <glyph glyph-name="bracketright" unicode="]" horiz-adv-x="710" 
d="M51 -401l166 104h115v1720h-115l-166 105v8h547v-1946h-547v9z" />
    <glyph glyph-name="asciicircum" unicode="^" 
d="M168 731q82 89 215.5 320t181.5 383h140q49 -150 182.5 -382.5t214.5 -320.5l-4 -6l-463 373l-463 -373z" />
    <glyph glyph-name="underscore" unicode="_" horiz-adv-x="1024" 
d="M-31 -41h1086v-123h-1086v123z" />
    <glyph glyph-name="grave" unicode="`" horiz-adv-x="819" 
d="M43 1468l2 7h406q14 -71 75.5 -172.5t124.5 -153.5l-6 -6z" />
    <glyph glyph-name="a" unicode="a" horiz-adv-x="1112" 
d="M-31 0v8l117 70l471 1089h8l461 -1089l117 -70v-8h-398l-129 330l-137 -88h-164l-12 -29q-20 -52 -20 -96q0 -38 24 -67t70 -42v-8h-408zM367 354h239l-108 289h-9z" />
    <glyph glyph-name="b" unicode="b" horiz-adv-x="1138" 
d="M92 0v8l113 70v788h244v8l-357 224v8h469q137 0 239 -27.5t164 -89.5t62 -153q0 -155 -207 -232v-8q258 -73 258 -293q0 -154 -105.5 -228.5t-297.5 -74.5h-582zM502 113h96q99 0 136.5 52.5t37.5 153.5q0 92 -58 168.5t-159 116.5v8q76 0 125 55.5t49 153.5
q0 83 -33 127.5t-112 44.5h-82v-880z" />
    <glyph glyph-name="c" unicode="c" horiz-adv-x="1034" 
d="M82 553q0 112 36 214t103 182.5t174 128.5t238 48q166 0 311 -82l-43 -344h-8q-20 72 -41 123.5t-50 97.5t-67.5 69.5t-85.5 23.5q-120 0 -185 -115.5t-65 -325.5q0 -253 65 -367t189 -114q87 0 146 82t102 234h8l43 -338q-142 -90 -340 -90q-130 0 -232 43t-166.5 120
t-98 181t-33.5 229z" />
    <glyph glyph-name="d" unicode="d" horiz-adv-x="1275" 
d="M92 0v8l113 70v788h244v8l-357 224v8h557q157 0 278.5 -62t194 -189t72.5 -302q0 -143 -42 -251t-118.5 -173t-176 -97t-222.5 -32h-543zM502 123h90q70 0 121 22t88.5 72.5t56.5 138t19 213.5q0 212 -63 313t-191 101h-121v-860z" />
    <glyph glyph-name="e" unicode="e" horiz-adv-x="983" 
d="M92 0v8l113 70v950l-113 70v8h778v-332h-8q-60 219 -276 219h-84v-368h321v-9l-118 -104h-203v-399h114q63 0 113.5 22t82.5 59.5t51.5 78.5t29.5 87h8v-360h-809z" />
    <glyph glyph-name="f" unicode="f" horiz-adv-x="892" 
d="M92 0v8l113 70v950l-113 70v8h780v-338h-8q-11 40 -22 67.5t-33.5 59.5t-52 52t-78 33t-111.5 13h-65v-379h301v-8l-119 -104h-182v-258q0 -48 11 -87t28 -63t41.5 -42.5t46 -27.5t47.5 -16v-8h-584z" />
    <glyph glyph-name="g" unicode="g" horiz-adv-x="1216" 
d="M82 553q0 127 47 235.5t127 182t186 114.5t224 41q132 0 235.5 -37.5t163.5 -99.5l-186 -260l-9 8q11 22 11 66q0 91 -54.5 151t-144.5 60q-131 0 -207 -112.5t-76 -332.5q0 -235 70 -356t209 -121q87 0 153 37v150q0 206 -196 266v8h448v-573h-8l-133 81
q-118 -81 -305 -81q-118 0 -218 36.5t-175.5 106.5t-118.5 180.5t-43 249.5z" />
    <glyph glyph-name="h" unicode="h" horiz-adv-x="1327" 
d="M92 0v8l113 70v958l-113 62v8h512v-8l-102 -62v-391h323v207q0 91 -13 142t-32.5 70.5t-56.5 33.5v8h512v-8l-113 -62v-958l113 -70v-8h-512v8l102 70v540l-123 -96h-200v-268q0 -91 13 -142t32.5 -70.5t56.5 -33.5v-8h-512z" />
    <glyph glyph-name="i" unicode="i" horiz-adv-x="706" 
d="M92 0v8l113 70v950l-113 70v8h522v-8l-112 -70v-950l112 -70v-8h-522z" />
    <glyph glyph-name="j" unicode="j" horiz-adv-x="663" 
d="M-20 1098v8h612v-8l-113 -70v-438q0 -552 -366 -651l-7 2q39 53 57.5 108t18.5 154v604q0 139 -44.5 203.5t-157.5 87.5z" />
    <glyph glyph-name="k" unicode="k" horiz-adv-x="1208" 
d="M92 0v8l113 70v950l-113 70v8h563v-8l-153 -70v-784q0 -190 153 -236v-8h-563zM530 586l250 315q56 72 56 121q0 56 -74 76v8h438v-8l-121 -70l-295 -362l338 -588l117 -70v-8h-379z" />
    <glyph glyph-name="l" unicode="l" horiz-adv-x="919" 
d="M92 0v8l113 70v950l-113 70v8h584v-8l-174 -70v-905h123q63 0 109 17.5t75.5 53.5t46.5 70.5t35 89.5h8v-354h-807z" />
    <glyph glyph-name="m" unicode="m" horiz-adv-x="1509" 
d="M92 0v8l113 70v950l-113 70v8h424l238 -608h8l235 608h420v-8l-112 -70v-950l112 -70v-8h-409v717h-9l-303 -778h-8l-311 761h-8v-700h-277z" />
    <glyph glyph-name="n" unicode="n" horiz-adv-x="1177" 
d="M39 1098v8h348l434 -551h8v287q0 74 -8.5 118.5t-33.5 72t-54.5 40t-85.5 25.5v8h459v-8l-113 -70v-1128h-8l-629 796h-8v-432q0 -74 8.5 -118.5t33.5 -72t54.5 -40t85.5 -25.5v-8h-458v8l112 70v837z" />
    <glyph glyph-name="o" unicode="o" 
d="M82 553q0 178 73.5 309.5t197.5 197.5t282 66q53 0 94 -8l-88 -383h-8l-60 269q-79 -28 -126.5 -139t-47.5 -312q0 -238 65 -349.5t171 -111.5t170.5 111.5t64.5 349.5q0 245 -71 362l51 175q156 -59 247 -198t91 -339q0 -178 -73.5 -309.5t-197.5 -197.5t-282 -66
t-282 66t-197.5 197.5t-73.5 309.5z" />
    <glyph glyph-name="p" unicode="p" horiz-adv-x="1107" 
d="M92 0v8l113 70v788h244v8l-357 224v8h572q203 0 313 -80.5t110 -234.5t-121.5 -243t-308.5 -89h-12l-143 90v-305q0 -48 11 -87t28 -63t41.5 -42.5t46 -27.5t47.5 -16v-8h-584zM502 571h88q91 0 135.5 57t44.5 156q0 209 -205 209h-63v-422z" />
    <glyph glyph-name="q" unicode="q" 
d="M82 553q0 178 73.5 309.5t197.5 197.5t282 66t282 -66t197.5 -197.5t73.5 -309.5q0 -219 -117 -375l117 -268l-6 -4l-428 407q60 0 88 59t28 181q0 238 -64.5 349.5t-170.5 111.5t-171 -111.5t-65 -349.5t65 -349.5t171 -111.5q61 0 61 109l303 -289l-4 -6l-260 84
q-45 -10 -100 -10q-157 0 -281 65.5t-198 197t-74 310.5z" />
    <glyph glyph-name="r" unicode="r" horiz-adv-x="1181" 
d="M92 0v8l113 70v788h244v8l-357 224v8h584q119 0 211 -29.5t150.5 -96.5t58.5 -165q0 -101 -62.5 -176t-165.5 -102l258 -459l97 -70v-8h-377l-307 586v8h39q200 0 200 211q0 84 -54 136t-173 52h-49v-749q0 -186 137 -236v-8h-547z" />
    <glyph glyph-name="s" unicode="s" horiz-adv-x="886" 
d="M72 817q0 146 99.5 227.5t264.5 81.5q89 0 174.5 -21t145.5 -52l-23 -281h-8q-36 101 -113 171.5t-168 70.5q-61 0 -94 -32.5t-33 -82.5q0 -42 28 -78.5t73 -66t99 -60.5t108 -68.5t99 -81.5t73 -109t28 -142q0 -147 -114.5 -230t-294.5 -83q-192 0 -338 73l22 291h9
q44 -98 122 -175t177 -77q72 0 111.5 33t39.5 98q0 45 -27 84t-70 70t-94.5 62.5t-103.5 68t-95 78t-70 101t-27 130.5z" />
    <glyph glyph-name="t" unicode="t" horiz-adv-x="952" 
d="M20 721v385h912v-385h-8q-13 64 -28.5 105.5t-44 80.5t-75.5 57.5t-114 18.5h-37v-739q0 -48 11 -87t28 -63t41.5 -42.5t46 -27.5t47.5 -16v-8h-645v8l174 70v905h-37q-68 0 -114.5 -18t-75 -56.5t-44 -80.5t-28.5 -107h-9z" />
    <glyph glyph-name="u" unicode="u" horiz-adv-x="1167" 
d="M61 1098v8h410v-758q0 -61 11.5 -106.5t29 -71.5t43 -42t49.5 -21t53 -5q93 0 143 61.5t50 215.5v504q0 49 -9.5 85t-22.5 57.5t-36 37t-40.5 22t-45.5 13.5v8h430v-8l-112 -70v-618q0 -104 -22.5 -181.5t-59 -124t-90.5 -75.5t-110 -39t-126 -10q-68 0 -121.5 7.5
t-114.5 34t-101.5 72.5t-67.5 129t-27 197v608z" />
    <glyph glyph-name="v" unicode="v" horiz-adv-x="1024" 
d="M-20 1098v8h397l207 -565h8l117 319q20 56 20 101q0 64 -37.5 98t-95.5 39v8h448v-8l-120 -70l-406 -1122h-8l-412 1122z" />
    <glyph glyph-name="w" unicode="w" horiz-adv-x="1429" 
d="M-20 1098v8h352l211 -592h8l219 633h8l211 -633h8l125 348q17 59 17 99q0 64 -40 97.5t-106 39.5v8h457v-8l-115 -68l-387 -1081h-8l-221 639h-8l-219 -639h-9l-389 1081z" />
    <glyph glyph-name="x" unicode="x" horiz-adv-x="1191" 
d="M20 1098v8h418l201 -344l88 127q37 52 37 110q0 39 -22 66t-70 33v8h465v-8l-144 -70l-276 -399l325 -553l129 -68v-8h-415l-219 371l-107 -156q-35 -50 -35 -111q0 -83 92 -96v-8h-464v8l143 70l293 424l-307 526z" />
    <glyph glyph-name="y" unicode="y" horiz-adv-x="1077" 
d="M-20 1098v8h405l227 -477h9l108 219q43 87 43 143q0 97 -117 107v8h443v-8l-125 -60l-281 -563v-231q0 -48 11 -87t28 -63t41.5 -42.5t46 -27.5t47.5 -16v-8h-645v8l174 70v366l-291 594z" />
    <glyph glyph-name="z" unicode="z" horiz-adv-x="899" 
d="M45 6l455 977h-115q-70 0 -122 -20t-84 -58t-49 -73t-32 -84h-8v358h750l4 -6l-457 -977h133q70 0 123 20.5t85 57.5t49.5 73t31.5 84h8v-358h-770z" />
    <glyph glyph-name="braceleft" unicode="{" horiz-adv-x="710" 
d="M55 606v8q221 44 221 224q0 137 21 247t55.5 183.5t85 128.5t101.5 86.5t114 52.5l6 -2q-57 -50 -86.5 -119.5t-29.5 -183.5v-518l-226 -99v-8l226 -98v-612q0 -114 29.5 -184t86.5 -120l-6 -2q-46 16 -82 32t-77 43t-71 60t-59 82t-47.5 109.5t-29.5 142.5t-11 181v143
q0 99 -55.5 149.5t-165.5 73.5z" />
    <glyph glyph-name="bar" unicode="|" horiz-adv-x="614" 
d="M205 -410v1946h205v-1946h-205z" />
    <glyph glyph-name="braceright" unicode="}" horiz-adv-x="710" 
d="M51 -408q57 50 87 120t30 184v612l225 98v8l-225 99v518q0 114 -29.5 183.5t-87.5 119.5l6 2q63 -21 114 -52.5t101.5 -86.5t85 -128.5t55.5 -183.5t21 -247q0 -180 221 -224v-8q-110 -23 -165.5 -73.5t-55.5 -149.5v-123q0 -137 -21.5 -244t-55 -176t-85 -121
t-101.5 -79.5t-114 -49.5z" />
    <glyph glyph-name="asciitilde" unicode="~" 
d="M162 573l213 287q37 6 67 6q74 0 141 -16t108 -36t97.5 -36t112.5 -16q129 0 201 74l6 -5l-211 -286q-37 -6 -70 -6q-73 0 -139.5 16.5t-107.5 35.5t-97.5 35.5t-113.5 16.5q-131 0 -201 -74z" />
    <glyph glyph-name="uni00A0" unicode="&#xa0;" horiz-adv-x="491" 
 />
    <glyph glyph-name="exclamdown" unicode="&#xa1;" horiz-adv-x="606" 
d="M109 1260v8l190 186h8l191 -186v-8q-45 -15 -109.5 -80t-81.5 -113h-8q-17 48 -81 113t-109 80zM143 0l62 774l94 238h8l94 -238l60 -774h-318z" />
    <glyph glyph-name="cent" unicode="&#xa2;" horiz-adv-x="1003" 
d="M82 696q0 225 117 371.5t293 175.5l75 322h11l75 -324q111 -18 190.5 -75.5t108.5 -145.5l-221 -154l-6 6q14 35 14 97q0 80 -40.5 134t-123.5 54q-100 0 -153 -111.5t-53 -318.5q0 -78 10.5 -149.5t35.5 -143.5t76 -115t123 -43q75 0 147.5 35t125.5 95l47 -44
q-102 -142 -281 -172l-75 -319h-11l-73 317q-187 25 -299.5 158t-112.5 350z" />
    <glyph glyph-name="sterling" unicode="&#xa3;" horiz-adv-x="1044" 
d="M61 604v8l191 123h31q-13 28 -41.5 86t-44 92.5t-29.5 85t-14 95.5q0 163 115.5 261.5t305.5 98.5q178 0 334 -78l-28 -362h-9q-47 151 -116.5 229t-177.5 78q-66 0 -107 -41.5t-41 -116.5q0 -54 29.5 -124t72 -155.5t60.5 -148.5h311v-8l-194 -123h-95
q0 -133 -64.5 -258t-182.5 -207l2 -6h309q212 0 297 297h8v-430h-905l-2 8q129 124 195.5 247.5t66.5 270.5q0 30 -10 78h-267z" />
    <glyph glyph-name="currency" unicode="&#xa4;" 
d="M78 137l155 252q-90 133 -90 293t90 293l-155 254l6 6l254 -148q130 103 297 103t297 -103l254 148l6 -6l-154 -254q90 -133 90 -293t-90 -293l154 -252l-6 -6l-254 148q-130 -103 -297 -103t-297 103l-254 -148zM356 682q0 -133 77 -219t202 -86q126 0 203 85.5
t77 219.5t-77 220.5t-203 86.5q-125 0 -202 -86.5t-77 -220.5z" />
    <glyph glyph-name="yen" unicode="&#xa5;" horiz-adv-x="1228" 
d="M-20 1425v9h419l287 -598h8l174 344q41 81 41 139q0 96 -116 106v9h456v-9l-125 -59l-352 -707v-8h332v-8l-180 -115h-152v-163h332v-9l-180 -114h-152q0 -59 15.5 -103t43.5 -69.5t55 -39t60 -22.5v-8h-655v8l174 70v164h-332v8l180 115h152v163h-332v9l180 114h142
l-351 715z" />
    <glyph glyph-name="brokenbar" unicode="&#xa6;" horiz-adv-x="614" 
d="M205 358h205v-768h-205v768zM205 768v768h205v-768h-205z" />
    <glyph glyph-name="section" unicode="&#xa7;" horiz-adv-x="948" 
d="M92 524q0 111 62.5 186t171.5 105q-52 33 -88 61.5t-72.5 69t-55 90.5t-18.5 109q0 145 104.5 227t270.5 82q87 0 170.5 -22t142.5 -56l-26 -297h-9q-35 124 -110.5 203.5t-173.5 79.5q-59 0 -95 -34.5t-36 -86.5q0 -45 29.5 -84.5t77 -71t104.5 -64t114 -70.5
t104.5 -82.5t77 -108t29.5 -139.5q0 -100 -58.5 -172t-158.5 -109q65 -43 109 -85.5t76 -109t32 -145.5q0 -146 -119 -229.5t-301 -83.5q-179 0 -340 84l25 301h8q19 -56 46 -104.5t65 -92.5t91 -70t114 -26q65 0 109 36t44 105q0 49 -28.5 91.5t-74 75t-100.5 65t-110 68.5
t-100.5 77t-74 99.5t-28.5 127.5zM330 627q0 -69 51.5 -122t153.5 -116q73 44 73 146q0 70 -45 123.5t-131 111.5q-49 -13 -75.5 -51t-26.5 -92z" />
    <glyph glyph-name="dieresis" unicode="&#xa8;" horiz-adv-x="819" 
d="M-25 1315v8l191 186h8l191 -186v-8q-45 -15 -109.5 -80t-81.5 -113h-8q-17 48 -81.5 113t-109.5 80zM455 1315v8l190 186h8l191 -186v-8q-45 -15 -109.5 -80t-81.5 -113h-8q-17 48 -81 113t-109 80z" />
    <glyph glyph-name="copyright" unicode="&#xa9;" horiz-adv-x="1576" 
d="M51 717q0 200 99 369.5t268.5 268.5t369.5 99q150 0 286.5 -58.5t235.5 -157.5t157.5 -235t58.5 -286t-58.5 -286t-157.5 -235t-235.5 -157.5t-286.5 -58.5q-200 0 -369.5 99t-268.5 268.5t-99 369.5zM178 717q0 -129 48 -245t130 -199t194.5 -132t237.5 -49
q167 0 307.5 83t222 227t81.5 315t-81.5 314.5t-222 226.5t-307.5 83t-307.5 -83t-221.5 -226.5t-81 -314.5zM424 727q0 193 111 311.5t278 118.5q142 0 236 -63l-29 -240h-8q-66 221 -183 221q-87 0 -133.5 -85.5t-46.5 -250.5q0 -360 178 -360q49 0 89.5 35.5t63.5 81
t38 100.5h8l29 -229q-103 -70 -244 -70q-174 0 -280.5 111.5t-106.5 318.5z" />
    <glyph glyph-name="ordfeminine" unicode="&#xaa;" horiz-adv-x="624" 
d="M41 977q0 107 93 155t247 48v41q0 100 -18.5 139t-77.5 39q-50 0 -74.5 -32.5t-24.5 -80.5q0 -30 9 -57l-7 -4l-131 92q33 58 100.5 97.5t153.5 39.5q121 0 178.5 -52t57.5 -185v-340l67 -41v-9h-233v47q-70 -59 -158 -59q-83 0 -132.5 41t-49.5 121zM213 989
q0 -94 84 -94q41 0 84 37v192q-85 -2 -126.5 -32.5t-41.5 -102.5z" />
    <glyph glyph-name="guillemotleft" unicode="&#xab;" horiz-adv-x="933" 
d="M72 508v8q186 142 377 406h40l5 -9l-150 -401l150 -401l-5 -9h-40q-191 264 -377 406zM420 508v8q186 142 377 406h41l4 -9l-150 -401l150 -401l-4 -9h-41q-191 264 -377 406z" />
    <glyph glyph-name="logicalnot" unicode="&#xac;" 
d="M154 764v205h962v-625h-213v420h-749z" />
    <glyph glyph-name="uni00AD" unicode="&#xad;" horiz-adv-x="1071" 
d="M72 512v8l135 217h792v-8l-135 -217h-792z" />
    <glyph glyph-name="registered" unicode="&#xae;" horiz-adv-x="741" 
d="M61 1206q0 128 91.5 219t218.5 91t218 -91t91 -219q0 -94 -50.5 -170t-133.5 -112l-136 270v8q64 4 64 78q0 32 -17 52t-51 20h-20v-285l45 -20v-9h-166v9l35 20v287l-35 20v8h164q53 0 92 -26t39 -76q0 -74 -64 -94l64 -125q16 -33 35 -33q12 0 26.5 14.5t26.5 38.5
q29 60 29 125q0 109 -74.5 185.5t-181.5 76.5t-181.5 -76.5t-74.5 -185.5q0 -88 50.5 -156t127.5 -94q24 -8 49 -8q47 0 47 45l6 2l45 -90q-27 -8 -69 -8q-128 0 -219 91t-91 218z" />
    <glyph glyph-name="macron" unicode="&#xaf;" horiz-adv-x="819" 
d="M76 1229v164h667v-164h-667z" />
    <glyph glyph-name="degree" unicode="&#xb0;" horiz-adv-x="630" 
d="M55 1198q0 111 76 183.5t184 72.5t184 -72.5t76 -183.5q0 -110 -75.5 -184t-184.5 -74t-184.5 74t-75.5 184zM186 1198q0 -61 36.5 -100t92.5 -39t92.5 39t36.5 100q0 60 -36.5 98.5t-92.5 38.5t-92.5 -38.5t-36.5 -98.5z" />
    <glyph glyph-name="plusminus" unicode="&#xb1;" 
d="M154 0v205h962v-205h-962zM154 723v205h374v317h213v-317h375v-205h-375v-317h-213v317h-374z" />
    <glyph glyph-name="uni00B2" unicode="&#xb2;" horiz-adv-x="677" 
d="M0 836q198 219 303 370t105 250q0 67 -31.5 99t-85.5 32q-57 0 -88 -40.5t-31 -90.5q0 -36 10 -63l-6 -4l-135 170q47 44 117 72t145 28q119 0 206 -59t87 -162q0 -49 -16.5 -91.5t-55 -87t-76 -79.5t-106 -96.5t-117.5 -110.5h289l74 125h8v-271h-592z" />
    <glyph glyph-name="uni00B3" unicode="&#xb3;" horiz-adv-x="665" 
d="M31 905l102 125l6 -4q0 -66 37.5 -102.5t99.5 -36.5q60 0 95 40.5t35 114.5q0 64 -37.5 117t-116.5 53l-68 60v8h35q80 0 121 52t41 120q0 64 -30 99.5t-77 35.5q-50 0 -82 -36t-32 -97l-6 -4l-97 106q42 48 106.5 75.5t135.5 27.5q114 0 189 -49t75 -144q0 -76 -49 -125
t-117 -69v-8q86 -15 141.5 -65.5t55.5 -135.5q0 -115 -82.5 -181.5t-226.5 -66.5q-79 0 -145.5 25t-108.5 65z" />
    <glyph glyph-name="acute" unicode="&#xb4;" horiz-adv-x="819" 
d="M168 1149q63 52 125 153.5t76 172.5h405l2 -7l-602 -325z" />
    <glyph glyph-name="uni00B5" unicode="&#xb5;" horiz-adv-x="1208" 
d="M51 1016v8h410v-686q0 -93 30.5 -133.5t94.5 -40.5q44 0 93 25.5t89 66.5v557q0 97 -22 137.5t-91 65.5v8h410v-946l113 -70v-8h-410v127q-60 -62 -139.5 -101.5t-167.5 -45.5v-390h-8q-99 145 -289 195v1161z" />
    <glyph glyph-name="paragraph" unicode="&#xb6;" horiz-adv-x="1038" 
d="M51 1079q0 163 101.5 259t263.5 96h520v-9l-113 -69v-905q0 -170 -31 -306t-85.5 -224.5t-119.5 -143t-141 -80.5l-6 2q29 39 44 64.5t28.5 78t13.5 119.5v766h-110q-163 0 -264 93.5t-101 258.5zM348 1079q0 -231 162 -231h16v465h-26q-84 0 -118 -62t-34 -172z" />
    <glyph glyph-name="periodcentered" unicode="&#xb7;" horiz-adv-x="565" 
d="M88 610v8q45 15 109.5 80t81.5 113h8q17 -48 81 -113t109 -80v-8l-190 -186h-8z" />
    <glyph glyph-name="cedilla" unicode="&#xb8;" horiz-adv-x="819" 
d="M246 -182l92 202h94l-35 -120l168 -72v-10q0 -144 -85.5 -232t-198.5 -98l-2 6q48 9 85 64.5t37 126.5q0 61 -29.5 97t-84.5 36q-24 0 -39 -6z" />
    <glyph glyph-name="uni00B9" unicode="&#xb9;" horiz-adv-x="503" 
d="M31 827v13l129 49v592l-6 6h-123v12q64 16 154.5 63t146.5 97h12v-770l129 -49v-13h-442z" />
    <glyph glyph-name="ordmasculine" unicode="&#xba;" horiz-adv-x="720" 
d="M61 1135q0 147 85.5 233t213.5 86q129 0 214 -85.5t85 -233.5t-85 -234t-214 -86q-128 0 -213.5 86t-85.5 234zM233 1135q0 -265 127 -265t127 265q0 264 -127 264t-127 -264z" />
    <glyph glyph-name="guillemotright" unicode="&#xbb;" horiz-adv-x="933" 
d="M92 111l150 401l-150 401l4 9h41q191 -264 377 -406v-8q-186 -142 -377 -406h-41zM440 111l150 401l-150 401l4 9h41q191 -264 377 -406v-8q-186 -142 -377 -406h-41z" />
    <glyph glyph-name="onequarter" unicode="&#xbc;" horiz-adv-x="1507" 
d="M51 623v12l129 49v592l-6 6h-123v12q64 16 154.5 63t146.5 97h13v-770l129 -49v-12h-443zM205 6l942 1428h166l2 -7l-942 -1427h-166zM801 231l522 600h8v-600h135v-8l-75 -73h-60v-150q-33 0 -89 -9t-87 -20h-8v179h-258l-84 73zM918 238l4 -7h225v256h-8z" />
    <glyph glyph-name="onehalf" unicode="&#xbd;" horiz-adv-x="1632" 
d="M51 623v12l129 49v592l-6 6h-123v12q64 16 154.5 63t146.5 97h13v-770l129 -49v-12h-443zM205 6l942 1428h166l2 -7l-942 -1427h-166zM934 8q196 218 301.5 370t105.5 251q0 131 -116 131q-57 0 -88 -40.5t-31 -90.5q0 -37 10 -64l-6 -4l-135 170q47 44 117 72t145 28
q119 0 206 -59t87 -162q0 -49 -16.5 -91.5t-55 -87t-76 -79.5t-106 -96.5t-117.5 -110.5h289l74 125h8v-270h-592z" />
    <glyph glyph-name="threequarters" unicode="&#xbe;" horiz-adv-x="1548" 
d="M51 700l103 125l6 -4q0 -66 37.5 -102.5t99.5 -36.5q59 0 94 41t35 115q0 64 -37.5 117t-116.5 53l-67 59v8h35q80 0 120.5 52t40.5 120q0 64 -29.5 99.5t-76.5 35.5q-50 0 -82.5 -36t-32.5 -97l-6 -4l-96 107q41 48 105 75t136 27q114 0 189.5 -49t75.5 -143
q0 -76 -49.5 -125.5t-116.5 -69.5v-8q85 -15 140.5 -65.5t55.5 -135.5q0 -115 -82.5 -181.5t-226.5 -66.5q-79 0 -145.5 25t-108.5 65zM246 6l942 1428h166l2 -7l-942 -1427h-166zM842 231l522 600h8v-600h135v-8l-75 -73h-60v-150q-33 0 -89 -9t-87 -20h-8v179h-258l-84 73
zM958 238l5 -7h225v256h-8z" />
    <glyph glyph-name="questiondown" unicode="&#xbf;" horiz-adv-x="1097" 
d="M143 348q0 164 102.5 287t286.5 201l78 176h8l113 -246q-70 -29 -120 -66.5t-78.5 -76t-45 -87t-21.5 -91t-5 -97.5q0 -124 46 -195t134 -71q85 0 131.5 67t46.5 158q0 80 -16 123l6 6l227 -289q-81 -74 -190 -120.5t-236 -46.5q-210 0 -338.5 100.5t-128.5 267.5z
M420 1260v8l190 186h8l191 -186v-8q-45 -15 -109.5 -80t-81.5 -113h-8q-17 48 -81 113t-109 80z" />
    <glyph glyph-name="Agrave" unicode="&#xc0;" horiz-adv-x="1308" 
d="M-31 0v8l103 70l587 1417h9l569 -1417l102 -70v-8h-399l-160 428l-172 -111h-260l-29 -69q-22 -58 -22 -105q0 -101 109 -135v-8h-437zM297 1892l2 6h406q14 -71 75.5 -172t124.5 -153l-6 -6zM408 467h358l-166 451h-8z" />
    <glyph glyph-name="Aacute" unicode="&#xc1;" horiz-adv-x="1308" 
d="M-31 0v8l103 70l587 1417h9l569 -1417l102 -70v-8h-399l-160 428l-172 -111h-260l-29 -69q-22 -58 -22 -105q0 -101 109 -135v-8h-437zM408 467h358l-166 451h-8zM422 1552q63 52 125 153.5t76 172.5h405l2 -6l-602 -326z" />
    <glyph glyph-name="Acircumflex" unicode="&#xc2;" horiz-adv-x="1308" 
d="M-31 0v8l103 70l587 1417h9l569 -1417l102 -70v-8h-399l-160 428l-172 -111h-260l-29 -69q-22 -58 -22 -105q0 -101 109 -135v-8h-437zM283 1593q61 40 162.5 136.5t152.5 168.5h131q51 -71 153 -168t162 -137l-4 -6l-376 119l-377 -119zM408 467h358l-166 451h-8z" />
    <glyph glyph-name="Atilde" unicode="&#xc3;" horiz-adv-x="1308" 
d="M-31 0v8l103 70l587 1417h9l569 -1417l102 -70v-8h-399l-160 428l-172 -111h-260l-29 -69q-22 -58 -22 -105q0 -101 109 -135v-8h-437zM293 1686l166 225q29 4 55 4q73 0 134 -20.5t114.5 -41t107.5 -20.5q101 0 158 59l6 -4l-166 -225q-29 -4 -55 -4q-73 0 -134 20.5
t-114.5 41t-107.5 20.5q-100 0 -158 -60zM408 467h358l-166 451h-8z" />
    <glyph glyph-name="Adieresis" unicode="&#xc4;" horiz-adv-x="1308" 
d="M-31 0v8l103 70l587 1417h9l569 -1417l102 -70v-8h-399l-160 428l-172 -111h-260l-29 -69q-22 -58 -22 -105q0 -101 109 -135v-8h-437zM229 1704v8l191 186h8l190 -186v-8q-45 -15 -109 -80t-81 -113h-8q-17 48 -81.5 113t-109.5 80zM408 467h358l-166 451h-8zM709 1704
v8l190 186h8l191 -186v-8q-45 -15 -109.5 -80t-81.5 -113h-8q-17 48 -81 113t-109 80z" />
    <glyph glyph-name="Aring" unicode="&#xc5;" horiz-adv-x="1308" 
d="M-31 0v8l103 70l534 1292q-94 19 -156.5 94.5t-62.5 175.5q0 116 80.5 196.5t196.5 80.5q115 0 195.5 -80.5t80.5 -196.5q0 -150 -137 -241l-117 69l-6 -6l557 -1384l102 -70v-8h-399l-160 428l-172 -111h-260l-29 -69q-22 -58 -22 -105q0 -101 109 -135v-8h-437z
M408 467h358l-166 451h-8zM524 1640q0 -59 40.5 -102t99.5 -43t99 42t40 103q0 60 -40.5 103t-98.5 43t-99 -43t-41 -103z" />
    <glyph glyph-name="AE" unicode="&#xc6;" horiz-adv-x="1628" 
d="M-51 0v8l104 72l705 1276l-111 69v9h858v-420h-8q-13 54 -36 100t-59.5 87t-93.5 65t-128 24h-115v-477h379v-8l-166 -146h-213v-516h156q70 0 127.5 27t94 72.5t59.5 94t36 103.5h8v-440h-788v426l-170 -109h-223l-39 -69q-45 -77 -45 -135q0 -92 104 -105v-8h-436z
M449 467h309v537h-8z" />
    <glyph glyph-name="Ccedilla" unicode="&#xc7;" horiz-adv-x="1212" 
d="M92 717q0 165 49.5 304t135 233.5t202 147t248.5 52.5q221 0 403 -108l-49 -394h-8q-18 58 -36 104t-47 98t-61 86.5t-77 57.5t-96 23q-162 0 -244 -148.5t-82 -435.5q0 -624 324 -624q65 0 117.5 29.5t91.5 85.5t66 114.5t54 138.5h9l49 -383q-167 -105 -361 -116
l-32 -82l157 -72v-10q0 -145 -81 -232.5t-193 -97.5l-2 6q47 9 85 67.5t38 129.5q0 59 -28.5 93t-76.5 34q-24 0 -39 -6l-2 6l82 162q-129 7 -236.5 56.5t-188.5 139t-126 228t-45 313.5z" />
    <glyph glyph-name="Egrave" unicode="&#xc8;" horiz-adv-x="1112" 
d="M92 0v8l113 70v1278l-113 69v9h897v-420h-8q-13 54 -36 100t-59.5 87t-93.5 65t-128 24h-152v-477h416v-8l-166 -146h-250v-516h193q70 0 127.5 27t94 72.5t59.5 94t36 103.5h8v-440h-938zM221 1892l2 6h406q14 -71 75.5 -172t124.5 -153l-6 -6z" />
    <glyph glyph-name="Eacute" unicode="&#xc9;" horiz-adv-x="1112" 
d="M92 0v8l113 70v1278l-113 69v9h897v-420h-8q-13 54 -36 100t-59.5 87t-93.5 65t-128 24h-152v-477h416v-8l-166 -146h-250v-516h193q70 0 127.5 27t94 72.5t59.5 94t36 103.5h8v-440h-938zM346 1573q63 52 125 153t76 172h405l2 -6l-602 -325z" />
    <glyph glyph-name="Ecircumflex" unicode="&#xca;" horiz-adv-x="1112" 
d="M92 0v8l113 70v1278l-113 69v9h897v-420h-8q-13 54 -36 100t-59.5 87t-93.5 65t-128 24h-152v-477h416v-8l-166 -146h-250v-516h193q70 0 127.5 27t94 72.5t59.5 94t36 103.5h8v-440h-938zM207 1593q61 40 162.5 136.5t152.5 168.5h131q51 -71 153.5 -168t162.5 -137
l-4 -6l-377 119l-377 -119z" />
    <glyph glyph-name="Edieresis" unicode="&#xcb;" horiz-adv-x="1112" 
d="M92 0v8l113 70v1278l-113 69v9h897v-420h-8q-13 54 -36 100t-59.5 87t-93.5 65t-128 24h-152v-477h416v-8l-166 -146h-250v-516h193q70 0 127.5 27t94 72.5t59.5 94t36 103.5h8v-440h-938zM154 1704v8l190 186h8l191 -186v-8q-45 -15 -109.5 -80t-81.5 -113h-8
q-17 48 -81 113t-109 80zM633 1704v8l190 186h8l191 -186v-8q-45 -15 -109.5 -80t-81.5 -113h-8q-17 48 -81 113t-109 80z" />
    <glyph glyph-name="Igrave" unicode="&#xcc;" horiz-adv-x="716" 
d="M-8 1892l2 6h405q14 -71 76 -172t125 -153l-6 -6zM92 0v8l113 70v1278l-113 69v9h533v-9l-113 -69v-1278l113 -70v-8h-533z" />
    <glyph glyph-name="Iacute" unicode="&#xcd;" horiz-adv-x="716" 
d="M92 0v8l113 70v1278l-113 69v9h533v-9l-113 -69v-1278l113 -70v-8h-533zM117 1573q63 52 124.5 153t75.5 172h406l2 -6l-602 -325z" />
    <glyph glyph-name="Icircumflex" unicode="&#xce;" horiz-adv-x="716" 
d="M-23 1593q61 41 163 137t153 168h131q51 -71 153 -168t162 -137l-4 -6l-377 119l-376 -119zM92 0v8l113 70v1278l-113 69v9h533v-9l-113 -69v-1278l113 -70v-8h-533z" />
    <glyph glyph-name="Idieresis" unicode="&#xcf;" horiz-adv-x="716" 
d="M-76 1704v8l191 186h8l190 -186v-8q-45 -15 -109 -80t-81 -113h-8q-17 48 -81.5 113t-109.5 80zM92 0v8l113 70v1278l-113 69v9h533v-9l-113 -69v-1278l113 -70v-8h-533zM403 1704v8l191 186h8l191 -186v-8q-45 -15 -109.5 -80t-81.5 -113h-8q-17 48 -81.5 113t-109.5 80
z" />
    <glyph glyph-name="Eth" unicode="&#xd0;" horiz-adv-x="1427" 
d="M-31 659v9l166 145h70v379h254v8l-367 225v9h563q208 0 362.5 -90t236 -252t81.5 -375q0 -342 -180.5 -529.5t-499.5 -187.5h-563v8l113 70v581h-236zM512 133h143q174 0 258 144.5t84 439.5q0 306 -83 444.5t-259 138.5h-143v-487h358v-8l-165 -146h-193v-526z" />
    <glyph glyph-name="Ntilde" unicode="&#xd1;" horiz-adv-x="1382" 
d="M51 1425v9h395l549 -787h9v522q0 59 -7 99.5t-18.5 66.5t-36 43.5t-50.5 27t-71 19.5v9h469v-9l-112 -69v-1450h-9l-782 1112h-8v-754q0 -74 8.5 -118.5t33.5 -72t54.5 -40t85.5 -25.5v-8h-469v8l113 70v1200l-51 78zM326 1665l166 225q29 4 55 4q73 0 134 -20.5
t114.5 -41t107.5 -20.5q100 0 158 60l6 -4l-166 -226q-29 -4 -55 -4q-73 0 -134 20.5t-115 41t-108 20.5q-100 0 -157 -59z" />
    <glyph glyph-name="Ograve" unicode="&#xd2;" horiz-adv-x="1470" 
d="M92 717q0 172 50.5 312.5t138 232.5t204.5 142t252 50q58 0 105 -8l-99 -422h-10l-65 289q-238 -64 -238 -596q0 -604 305 -604t305 604q0 367 -112 512l53 178q183 -74 290 -253t107 -437q0 -172 -50 -312.5t-137.5 -232.5t-204 -142t-251.5 -50t-251.5 50t-204 142
t-137.5 232.5t-50 312.5zM369 1892l2 6h405q14 -71 76 -172t125 -153l-6 -6z" />
    <glyph glyph-name="Oacute" unicode="&#xd3;" horiz-adv-x="1470" 
d="M92 717q0 172 50.5 312.5t138 232.5t204.5 142t252 50q58 0 105 -8l-99 -422h-10l-65 289q-238 -64 -238 -596q0 -604 305 -604t305 604q0 367 -112 512l53 178q183 -74 290 -253t107 -437q0 -172 -50 -312.5t-137.5 -232.5t-204 -142t-251.5 -50t-251.5 50t-204 142
t-137.5 232.5t-50 312.5zM494 1573q63 52 124.5 153t75.5 172h406l2 -6l-602 -325z" />
    <glyph glyph-name="Ocircumflex" unicode="&#xd4;" horiz-adv-x="1470" 
d="M92 717q0 172 50.5 312.5t138 232.5t204.5 142t252 50q58 0 105 -8l-99 -422h-10l-65 289q-238 -64 -238 -596q0 -604 305 -604t305 604q0 367 -112 512l53 178q183 -74 290 -253t107 -437q0 -172 -50 -312.5t-137.5 -232.5t-204 -142t-251.5 -50t-251.5 50t-204 142
t-137.5 232.5t-50 312.5zM354 1593q61 41 163 137t153 168h131q51 -71 153 -168t162 -137l-4 -6l-377 119l-377 -119z" />
    <glyph glyph-name="Otilde" unicode="&#xd5;" horiz-adv-x="1470" 
d="M92 717q0 172 50.5 312.5t138 232.5t204.5 142t252 50q58 0 105 -8l-99 -422h-10l-65 289q-238 -64 -238 -596q0 -604 305 -604t305 604q0 367 -112 512l53 178q183 -74 290 -253t107 -437q0 -172 -50 -312.5t-137.5 -232.5t-204 -142t-251.5 -50t-251.5 50t-204 142
t-137.5 232.5t-50 312.5zM365 1665l165 225q29 4 56 4q73 0 134 -20.5t114.5 -41t107.5 -20.5q100 0 158 60l6 -4l-166 -226q-29 -4 -55 -4q-73 0 -134 20.5t-115 41t-108 20.5q-100 0 -157 -59z" />
    <glyph glyph-name="Odieresis" unicode="&#xd6;" horiz-adv-x="1470" 
d="M92 717q0 172 50.5 312.5t138 232.5t204.5 142t252 50q58 0 105 -8l-99 -422h-10l-65 289q-238 -64 -238 -596q0 -604 305 -604t305 604q0 367 -112 512l53 178q183 -74 290 -253t107 -437q0 -172 -50 -312.5t-137.5 -232.5t-204 -142t-251.5 -50t-251.5 50t-204 142
t-137.5 232.5t-50 312.5zM301 1704v8l191 186h8l190 -186v-8q-45 -15 -109 -80t-81 -113h-8q-17 48 -81.5 113t-109.5 80zM780 1704v8l191 186h8l190 -186v-8q-45 -15 -109 -80t-81 -113h-8q-17 48 -81.5 113t-109.5 80z" />
    <glyph glyph-name="multiply" unicode="&#xd7;" 
d="M158 379l331 326l-329 325l147 148l326 -330l325 332l154 -154l-332 -326l330 -325l-147 -148l-326 330l-326 -332z" />
    <glyph glyph-name="Oslash" unicode="&#xd8;" horiz-adv-x="1470" 
d="M92 -14l162 215q-162 203 -162 516q0 172 50.5 312.5t138 232.5t204.5 142t252 50q58 0 105 -8l-99 -422h-10l-65 289q-238 -64 -238 -596q0 -143 19 -260l524 694q-14 33 -45 78l53 178q73 -33 129 -74l92 121h172l4 -6l-164 -215q164 -201 164 -516q0 -172 -50 -312.5
t-137.5 -232.5t-204 -142t-251.5 -50q-218 0 -377 120l-90 -120h-172zM496 283q76 -170 239 -170q305 0 305 604q0 152 -18 260z" />
    <glyph glyph-name="Ugrave" unicode="&#xd9;" horiz-adv-x="1320" 
d="M72 1425v9h420v-1004q0 -297 243 -297q117 0 182.5 76t65.5 252v719q0 67 -12.5 114t-37 72.5t-47.5 37.5t-57 21v9h441v-9l-113 -69v-885q0 -110 -26 -195.5t-69.5 -140.5t-106 -90.5t-131 -50t-148.5 -14.5q-72 0 -134.5 11t-130.5 44.5t-116.5 86.5t-79.5 145.5
t-31 213.5v875zM369 1892l2 6h405q14 -71 76 -172t125 -153l-6 -6z" />
    <glyph glyph-name="Uacute" unicode="&#xda;" horiz-adv-x="1320" 
d="M72 1425v9h420v-1004q0 -297 243 -297q117 0 182.5 76t65.5 252v719q0 67 -12.5 114t-37 72.5t-47.5 37.5t-57 21v9h441v-9l-113 -69v-885q0 -110 -26 -195.5t-69.5 -140.5t-106 -90.5t-131 -50t-148.5 -14.5q-72 0 -134.5 11t-130.5 44.5t-116.5 86.5t-79.5 145.5
t-31 213.5v875zM494 1573q63 52 124.5 153t75.5 172h406l2 -6l-602 -325z" />
    <glyph glyph-name="Ucircumflex" unicode="&#xdb;" horiz-adv-x="1320" 
d="M72 1425v9h420v-1004q0 -297 243 -297q117 0 182.5 76t65.5 252v719q0 67 -12.5 114t-37 72.5t-47.5 37.5t-57 21v9h441v-9l-113 -69v-885q0 -110 -26 -195.5t-69.5 -140.5t-106 -90.5t-131 -50t-148.5 -14.5q-72 0 -134.5 11t-130.5 44.5t-116.5 86.5t-79.5 145.5
t-31 213.5v875zM354 1593q61 41 163 137t153 168h131q51 -71 153 -168t162 -137l-4 -6l-377 119l-377 -119z" />
    <glyph glyph-name="Udieresis" unicode="&#xdc;" horiz-adv-x="1320" 
d="M72 1425v9h420v-1004q0 -297 243 -297q117 0 182.5 76t65.5 252v719q0 67 -12.5 114t-37 72.5t-47.5 37.5t-57 21v9h441v-9l-113 -69v-885q0 -110 -26 -195.5t-69.5 -140.5t-106 -90.5t-131 -50t-148.5 -14.5q-72 0 -134.5 11t-130.5 44.5t-116.5 86.5t-79.5 145.5
t-31 213.5v875zM301 1704v8l191 186h8l190 -186v-8q-45 -15 -109 -80t-81 -113h-8q-17 48 -81.5 113t-109.5 80zM780 1704v8l191 186h8l190 -186v-8q-45 -15 -109 -80t-81 -113h-8q-17 48 -81.5 113t-109.5 80z" />
    <glyph glyph-name="Yacute" unicode="&#xdd;" horiz-adv-x="1228" 
d="M-20 1425v9h419l287 -598h8l172 340q43 87 43 143q0 96 -116 106v9h456v-9l-125 -59l-352 -707v-415q0 -48 11 -87t28 -63t41.5 -42.5t46 -27.5t47.5 -16v-8h-655v8l174 70v553l-361 735zM414 1538q63 52 124.5 153.5t75.5 172.5h406l2 -6l-602 -326z" />
    <glyph glyph-name="Thorn" unicode="&#xde;" horiz-adv-x="1208" 
d="M92 0v8l113 70v1278l-113 69v9h574v-9l-154 -69v-189h154q152 0 268 -43.5t185 -134.5t69 -219q0 -101 -40 -182t-108.5 -133t-157.5 -79.5t-190 -27.5h-8l-172 111v-215q0 -48 11 -87t28 -63t41.5 -42.5t46 -27.5t47.5 -16v-8h-594zM512 492h104q244 0 244 268
q0 138 -65 201t-213 63h-70v-532z" />
    <glyph glyph-name="germandbls" unicode="&#xdf;" horiz-adv-x="1773" 
d="M72 817q0 146 99.5 227.5t264.5 81.5q89 0 174.5 -21t145.5 -52l-23 -281h-8q-36 101 -113 171.5t-168 70.5q-61 0 -94 -32.5t-33 -82.5q0 -42 28 -78.5t73 -66t99 -60.5t108 -68.5t99 -81.5t73 -109t28 -142q0 -147 -114.5 -230t-294.5 -83q-192 0 -338 73l22 291h9
q44 -98 122 -175t177 -77q72 0 111.5 33t39.5 98q0 45 -27 84t-70 70t-94.5 62.5t-103.5 68t-95 78t-70 101t-27 130.5zM958 817q0 146 100 227.5t265 81.5q89 0 174 -21t145 -52l-22 -281h-8q-36 101 -113 171.5t-168 70.5q-61 0 -94 -32.5t-33 -82.5q0 -42 28 -78.5
t73 -66t99 -60.5t108 -68.5t99 -81.5t73 -109t28 -142q0 -147 -114.5 -230t-294.5 -83q-192 0 -338 73l22 291h8q44 -98 122 -175t177 -77q72 0 112 33t40 98q0 45 -27 84t-70 70t-95 62.5t-104 68t-95 78t-70 101t-27 130.5z" />
    <glyph glyph-name="agrave" unicode="&#xe0;" horiz-adv-x="1112" 
d="M-31 0v8l117 70l471 1089h8l461 -1089l117 -70v-8h-398l-129 330l-137 -88h-164l-12 -29q-20 -52 -20 -96q0 -38 24 -67t70 -42v-8h-408zM133 1550l2 6h406q14 -71 75.5 -172t124.5 -153l-6 -6zM367 354h239l-108 289h-9z" />
    <glyph glyph-name="aacute" unicode="&#xe1;" horiz-adv-x="1112" 
d="M-31 0v8l117 70l471 1089h8l461 -1089l117 -70v-8h-398l-129 330l-137 -88h-164l-12 -29q-20 -52 -20 -96q0 -38 24 -67t70 -42v-8h-408zM360 1231q63 52 125 153t76 172h406l2 -6l-602 -325zM367 354h239l-108 289h-9z" />
    <glyph glyph-name="acircumflex" unicode="&#xe2;" horiz-adv-x="1112" 
d="M-31 0v8l117 70l471 1089h8l461 -1089l117 -70v-8h-398l-129 330l-137 -88h-164l-12 -29q-20 -52 -20 -96q0 -38 24 -67t70 -42v-8h-408zM180 1251q61 41 163 137t153 168h131q51 -71 153 -168t162 -137l-4 -6l-377 119l-377 -119zM367 354h239l-108 289h-9z" />
    <glyph glyph-name="atilde" unicode="&#xe3;" horiz-adv-x="1112" 
d="M-31 0v8l117 70l471 1089h8l461 -1089l117 -70v-8h-398l-129 330l-137 -88h-164l-12 -29q-20 -52 -20 -96q0 -38 24 -67t70 -42v-8h-408zM190 1323l166 225q29 4 56 4q73 0 134 -20.5t114.5 -41t107.5 -20.5q100 0 158 60l6 -4l-166 -226q-29 -4 -55 -4q-73 0 -134 20.5
t-115 41t-108 20.5q-100 0 -157 -59zM367 354h239l-108 289h-9z" />
    <glyph glyph-name="adieresis" unicode="&#xe4;" horiz-adv-x="1112" 
d="M-31 0v8l117 70l471 1089h8l461 -1089l117 -70v-8h-398l-129 330l-137 -88h-164l-12 -29q-20 -52 -20 -96q0 -38 24 -67t70 -42v-8h-408zM127 1397v8l190 186h9l190 -186v-8q-45 -15 -109 -80t-81 -113h-9q-17 48 -81 113t-109 80zM367 354h239l-108 289h-9zM606 1397v8
l191 186h8l190 -186v-8q-45 -15 -109 -80t-81 -113h-8q-17 48 -81.5 113t-109.5 80z" />
    <glyph glyph-name="aring" unicode="&#xe5;" horiz-adv-x="1112" 
d="M-31 0v8l117 70l471 1089h8l461 -1089l117 -70v-8h-398l-129 330l-137 -88h-164l-12 -29q-20 -52 -20 -96q0 -38 24 -67t70 -42v-8h-408zM334 1438q0 95 66.5 159t160.5 64t160.5 -64t66.5 -159q0 -96 -65.5 -161t-161.5 -65t-161.5 65t-65.5 161zM367 354h239l-108 289
h-9zM446 1438q0 -54 32.5 -87.5t82.5 -33.5t82.5 33.5t32.5 87.5t-32.5 87.5t-82.5 33.5t-82.5 -33.5t-32.5 -87.5z" />
    <glyph glyph-name="ae" unicode="&#xe6;" horiz-adv-x="1341" 
d="M-51 0v8l117 70l528 950l-113 70v8h748v-332h-8q-60 219 -277 219h-53v-368h291v-9l-119 -104h-172v-399h84q63 0 113.5 22t82 59.5t51 78.5t29.5 87h9v-360h-666v324l-129 -82h-141l-15 -27q-30 -58 -30 -98q0 -38 24 -67t70 -42v-8h-424zM387 354h207v359h-8z" />
    <glyph glyph-name="ccedilla" unicode="&#xe7;" horiz-adv-x="1034" 
d="M82 553q0 112 36 214t103 182.5t174 128.5t238 48q166 0 311 -82l-43 -344h-8q-20 72 -41 123.5t-50 97.5t-67.5 69.5t-85.5 23.5q-120 0 -185 -115.5t-65 -325.5q0 -253 65 -367t189 -114q87 0 146 82t102 234h8l43 -338q-131 -83 -315 -90l-23 -80l168 -72v-10
q0 -144 -85.5 -232t-198.5 -98l-2 6q48 9 85 64.5t37 126.5q0 61 -29.5 97t-84.5 36q-24 0 -39 -6l-2 6l76 166q-222 23 -339.5 177t-117.5 392z" />
    <glyph glyph-name="egrave" unicode="&#xe8;" horiz-adv-x="983" 
d="M92 0v8l113 70v950l-113 70v8h778v-332h-8q-60 219 -276 219h-84v-368h321v-9l-118 -104h-203v-399h114q63 0 113.5 22t82.5 59.5t51.5 78.5t29.5 87h8v-360h-809zM150 1550l2 6h405q14 -71 76 -172t125 -153l-6 -6z" />
    <glyph glyph-name="eacute" unicode="&#xe9;" horiz-adv-x="983" 
d="M92 0v8l113 70v950l-113 70v8h778v-332h-8q-60 219 -276 219h-84v-368h321v-9l-118 -104h-203v-399h114q63 0 113.5 22t82.5 59.5t51.5 78.5t29.5 87h8v-360h-809zM274 1231q63 52 125 153t76 172h406l2 -6l-602 -325z" />
    <glyph glyph-name="ecircumflex" unicode="&#xea;" horiz-adv-x="983" 
d="M92 0v8l113 70v950l-113 70v8h778v-332h-8q-60 219 -276 219h-84v-368h321v-9l-118 -104h-203v-399h114q63 0 113.5 22t82.5 59.5t51.5 78.5t29.5 87h8v-360h-809zM135 1251q61 41 163 137t153 168h131q51 -71 153 -168t162 -137l-4 -6l-377 119l-377 -119z" />
    <glyph glyph-name="edieresis" unicode="&#xeb;" horiz-adv-x="983" 
d="M82 1397v8l190 186h9l190 -186v-8q-45 -15 -109 -80t-81 -113h-9q-17 48 -81 113t-109 80zM92 0v8l113 70v950l-113 70v8h778v-332h-8q-60 219 -276 219h-84v-368h321v-9l-118 -104h-203v-399h114q63 0 113.5 22t82.5 59.5t51.5 78.5t29.5 87h8v-360h-809zM561 1397v8
l191 186h8l190 -186v-8q-45 -15 -109 -80t-81 -113h-8q-17 48 -81.5 113t-109.5 80z" />
    <glyph glyph-name="igrave" unicode="&#xec;" horiz-adv-x="706" 
d="M-14 1550l2 6h405q14 -71 76 -172t125 -153l-6 -6zM92 0v8l113 70v950l-113 70v8h522v-8l-112 -70v-950l112 -70v-8h-522z" />
    <glyph glyph-name="iacute" unicode="&#xed;" horiz-adv-x="706" 
d="M92 0v8l113 70v950l-113 70v8h522v-8l-112 -70v-950l112 -70v-8h-522zM111 1231q63 52 124.5 153t75.5 172h406l2 -6l-602 -325z" />
    <glyph glyph-name="icircumflex" unicode="&#xee;" horiz-adv-x="706" 
d="M-29 1251q61 41 163 137t153 168h131q51 -71 153 -168t162 -137l-4 -6l-377 119l-377 -119zM92 0v8l113 70v950l-113 70v8h522v-8l-112 -70v-950l112 -70v-8h-522z" />
    <glyph glyph-name="idieresis" unicode="&#xef;" horiz-adv-x="706" 
d="M-82 1397v8l191 186h8l190 -186v-8q-45 -15 -109 -80t-81 -113h-8q-17 48 -81.5 113t-109.5 80zM92 0v8l113 70v950l-113 70v8h522v-8l-112 -70v-950l112 -70v-8h-522zM397 1397v8l191 186h8l190 -186v-8q-45 -15 -109 -80t-81 -113h-8q-17 48 -81.5 113t-109.5 80z" />
    <glyph glyph-name="eth" unicode="&#xf0;" horiz-adv-x="1275" 
d="M-31 506v8l148 115h88v237h244v8l-357 224v8h557q157 0 278.5 -62t194 -189t72.5 -302q0 -143 -42 -251t-118.5 -173t-176 -97t-222.5 -32h-543v8l113 70v428h-236zM502 123h90q70 0 121 22t88.5 72.5t56.5 138t19 213.5q0 212 -63 313t-191 101h-121v-354h284v-8
l-145 -115h-139v-383z" />
    <glyph glyph-name="ntilde" unicode="&#xf1;" horiz-adv-x="1177" 
d="M39 1098v8h348l434 -551h8v287q0 74 -8.5 118.5t-33.5 72t-54.5 40t-85.5 25.5v8h459v-8l-113 -70v-1128h-8l-629 796h-8v-432q0 -74 8.5 -118.5t33.5 -72t54.5 -40t85.5 -25.5v-8h-458v8l112 70v837zM223 1323l166 225q29 4 55 4q73 0 134 -20.5t115 -41t108 -20.5
q99 0 157 60l7 -4l-166 -226q-29 -4 -56 -4q-73 0 -134 20.5t-114.5 41t-107.5 20.5q-101 0 -158 -59z" />
    <glyph glyph-name="ograve" unicode="&#xf2;" 
d="M82 553q0 178 73.5 309.5t197.5 197.5t282 66q53 0 94 -8l-88 -383h-8l-60 269q-79 -28 -126.5 -139t-47.5 -312q0 -238 65 -349.5t171 -111.5t170.5 111.5t64.5 349.5q0 245 -71 362l51 175q156 -59 247 -198t91 -339q0 -178 -73.5 -309.5t-197.5 -197.5t-282 -66
t-282 66t-197.5 197.5t-73.5 309.5zM268 1550l2 6h406q14 -71 76 -172t125 -153l-7 -6z" />
    <glyph glyph-name="oacute" unicode="&#xf3;" 
d="M82 553q0 178 73.5 309.5t197.5 197.5t282 66q53 0 94 -8l-88 -383h-8l-60 269q-79 -28 -126.5 -139t-47.5 -312q0 -238 65 -349.5t171 -111.5t170.5 111.5t64.5 349.5q0 245 -71 362l51 175q156 -59 247 -198t91 -339q0 -178 -73.5 -309.5t-197.5 -197.5t-282 -66
t-282 66t-197.5 197.5t-73.5 309.5zM393 1231q63 52 125 153t76 172h405l2 -6l-602 -325z" />
    <glyph glyph-name="ocircumflex" unicode="&#xf4;" 
d="M82 553q0 178 73.5 309.5t197.5 197.5t282 66q53 0 94 -8l-88 -383h-8l-60 269q-79 -28 -126.5 -139t-47.5 -312q0 -238 65 -349.5t171 -111.5t170.5 111.5t64.5 349.5q0 245 -71 362l51 175q156 -59 247 -198t91 -339q0 -178 -73.5 -309.5t-197.5 -197.5t-282 -66
t-282 66t-197.5 197.5t-73.5 309.5zM254 1251q61 40 162.5 136.5t152.5 168.5h131q51 -71 153.5 -168t162.5 -137l-4 -6l-377 119l-377 -119z" />
    <glyph glyph-name="otilde" unicode="&#xf5;" 
d="M82 553q0 178 73.5 309.5t197.5 197.5t282 66q53 0 94 -8l-88 -383h-8l-60 269q-79 -28 -126.5 -139t-47.5 -312q0 -238 65 -349.5t171 -111.5t170.5 111.5t64.5 349.5q0 245 -71 362l51 175q156 -59 247 -198t91 -339q0 -178 -73.5 -309.5t-197.5 -197.5t-282 -66
t-282 66t-197.5 197.5t-73.5 309.5zM264 1323l166 225q29 4 55 4q73 0 134 -20.5t115 -41t108 -20.5q99 0 157 60l7 -4l-166 -226q-29 -4 -56 -4q-73 0 -134 20.5t-114.5 41t-107.5 20.5q-101 0 -158 -59z" />
    <glyph glyph-name="odieresis" unicode="&#xf6;" 
d="M82 553q0 178 73.5 309.5t197.5 197.5t282 66q53 0 94 -8l-88 -383h-8l-60 269q-79 -28 -126.5 -139t-47.5 -312q0 -238 65 -349.5t171 -111.5t170.5 111.5t64.5 349.5q0 245 -71 362l51 175q156 -59 247 -198t91 -339q0 -178 -73.5 -309.5t-197.5 -197.5t-282 -66
t-282 66t-197.5 197.5t-73.5 309.5zM201 1397v8l190 186h8l191 -186v-8q-45 -15 -109.5 -80t-81.5 -113h-8q-17 48 -81 113t-109 80zM680 1397v8l190 186h9l190 -186v-8q-45 -15 -109 -80t-81 -113h-9q-17 48 -81 113t-109 80z" />
    <glyph glyph-name="divide" unicode="&#xf7;" 
d="M154 600v205h962v-205h-962zM434 354v8q42 15 109 81.5t88 111.5h8q21 -45 88 -111.5t109 -81.5v-8l-197 -192h-8zM434 1042v9l197 192h8l197 -192v-9q-42 -15 -109 -81t-88 -111h-8q-21 45 -88 111t-109 81z" />
    <glyph glyph-name="oslash" unicode="&#xf8;" 
d="M82 -14l137 164q-137 156 -137 403q0 178 73.5 309.5t197.5 197.5t282 66q53 0 94 -8l-88 -383h-8l-60 269q-79 -28 -126.5 -139t-47.5 -312q0 -93 13 -176l411 489l-24 49l51 175q68 -28 111 -58l79 94h144l4 -6l-139 -166q139 -158 139 -401q0 -178 -73.5 -309.5
t-197.5 -197.5t-282 -66q-187 0 -326 94l-80 -94h-143zM446 238q62 -146 189 -146q106 0 170.5 111.5t64.5 349.5q0 99 -12 176z" />
    <glyph glyph-name="ugrave" unicode="&#xf9;" horiz-adv-x="1167" 
d="M61 1098v8h410v-758q0 -61 11.5 -106.5t29 -71.5t43 -42t49.5 -21t53 -5q93 0 143 61.5t50 215.5v504q0 49 -9.5 85t-22.5 57.5t-36 37t-40.5 22t-45.5 13.5v8h430v-8l-112 -70v-618q0 -104 -22.5 -181.5t-59 -124t-90.5 -75.5t-110 -39t-126 -10q-68 0 -121.5 7.5
t-114.5 34t-101.5 72.5t-67.5 129t-27 197v608zM268 1550l2 6h406q14 -71 76 -172t125 -153l-7 -6z" />
    <glyph glyph-name="uacute" unicode="&#xfa;" horiz-adv-x="1167" 
d="M61 1098v8h410v-758q0 -61 11.5 -106.5t29 -71.5t43 -42t49.5 -21t53 -5q93 0 143 61.5t50 215.5v504q0 49 -9.5 85t-22.5 57.5t-36 37t-40.5 22t-45.5 13.5v8h430v-8l-112 -70v-618q0 -104 -22.5 -181.5t-59 -124t-90.5 -75.5t-110 -39t-126 -10q-68 0 -121.5 7.5
t-114.5 34t-101.5 72.5t-67.5 129t-27 197v608zM393 1231q63 52 125 153t76 172h405l2 -6l-602 -325z" />
    <glyph glyph-name="ucircumflex" unicode="&#xfb;" horiz-adv-x="1167" 
d="M61 1098v8h410v-758q0 -61 11.5 -106.5t29 -71.5t43 -42t49.5 -21t53 -5q93 0 143 61.5t50 215.5v504q0 49 -9.5 85t-22.5 57.5t-36 37t-40.5 22t-45.5 13.5v8h430v-8l-112 -70v-618q0 -104 -22.5 -181.5t-59 -124t-90.5 -75.5t-110 -39t-126 -10q-68 0 -121.5 7.5
t-114.5 34t-101.5 72.5t-67.5 129t-27 197v608zM254 1272q61 40 162.5 136.5t152.5 168.5h131q51 -71 153.5 -168t162.5 -137l-4 -6l-377 118l-377 -118z" />
    <glyph glyph-name="udieresis" unicode="&#xfc;" horiz-adv-x="1167" 
d="M61 1098v8h410v-758q0 -61 11.5 -106.5t29 -71.5t43 -42t49.5 -21t53 -5q93 0 143 61.5t50 215.5v504q0 49 -9.5 85t-22.5 57.5t-36 37t-40.5 22t-45.5 13.5v8h430v-8l-112 -70v-618q0 -104 -22.5 -181.5t-59 -124t-90.5 -75.5t-110 -39t-126 -10q-68 0 -121.5 7.5
t-114.5 34t-101.5 72.5t-67.5 129t-27 197v608zM201 1397v8l190 186h8l191 -186v-8q-45 -15 -109.5 -80t-81.5 -113h-8q-17 48 -81 113t-109 80zM680 1397v8l190 186h9l190 -186v-8q-45 -15 -109 -80t-81 -113h-9q-17 48 -81 113t-109 80z" />
    <glyph glyph-name="yacute" unicode="&#xfd;" horiz-adv-x="1077" 
d="M-20 1098v8h405l227 -477h9l108 219q43 87 43 143q0 97 -117 107v8h443v-8l-125 -60l-281 -563v-231q0 -48 11 -87t28 -63t41.5 -42.5t46 -27.5t47.5 -16v-8h-645v8l174 70v366l-291 594zM373 1231q63 52 124.5 153t75.5 172h406l2 -6l-602 -325z" />
    <glyph glyph-name="thorn" unicode="&#xfe;" horiz-adv-x="1107" 
d="M92 0v8l113 70v950l-113 70v8h563v-8l-153 -70v-135h162q203 0 313 -80.5t110 -234.5t-121.5 -243t-308.5 -89h-12l-143 90v-92q0 -48 11 -87t28 -63t41.5 -42.5t46 -27.5t47.5 -16v-8h-584zM502 358h88q91 0 135.5 57t44.5 156q0 209 -205 209h-63v-422z" />
    <glyph glyph-name="ydieresis" unicode="&#xff;" horiz-adv-x="1077" 
d="M-20 1098v8h405l227 -477h9l108 219q43 87 43 143q0 97 -117 107v8h443v-8l-125 -60l-281 -563v-231q0 -48 11 -87t28 -63t41.5 -42.5t46 -27.5t47.5 -16v-8h-645v8l174 70v366l-291 594zM141 1397v8l191 186h8l190 -186v-8q-45 -15 -109 -80t-81 -113h-8
q-17 48 -81.5 113t-109.5 80zM621 1397v8l190 186h8l191 -186v-8q-45 -15 -109.5 -80t-81.5 -113h-8q-17 48 -81 113t-109 80z" />
    <glyph glyph-name="OE" unicode="&#x152;" horiz-adv-x="1935" 
d="M92 717q0 172 50.5 312.5t138 232.5t204.5 142t252 50q58 0 105 -8l-99 -422h-10l-65 289q-238 -64 -238 -596q0 -604 305 -604t305 604q0 367 -112 512l63 205h821v-420h-8q-13 54 -36 100t-59.5 87t-93.5 65t-128 24h-150v-477h414v-8l-166 -146h-248v-516h191
q70 0 127.5 27t94 72.5t59.5 94t36 103.5h8v-440h-966q-75 -20 -152 -20q-135 0 -251.5 50t-204 142t-137.5 232.5t-50 312.5z" />
    <glyph glyph-name="oe" unicode="&#x153;" horiz-adv-x="1628" 
d="M92 553q0 178 73.5 309.5t197.5 197.5t282 66q53 0 94 -8l-88 -383h-8l-59 269q-79 -28 -126.5 -139t-47.5 -312q0 -238 64.5 -349.5t170.5 -111.5t171 111.5t65 349.5q0 244 -72 362l55 191h652v-332h-9q-60 219 -276 219h-53v-368h290v-9l-118 -104h-172v-399h84
q63 0 113.5 22t82 59.5t51 78.5t29.5 87h8v-360h-739q-77 -20 -162 -20q-158 0 -282 66t-197.5 197.5t-73.5 309.5z" />
    <glyph glyph-name="Ydieresis" unicode="&#x178;" horiz-adv-x="1228" 
d="M-20 1425v9h419l287 -598h8l172 340q43 87 43 143q0 96 -116 106v9h456v-9l-125 -59l-352 -707v-415q0 -48 11 -87t28 -63t41.5 -42.5t46 -27.5t47.5 -16v-8h-655v8l174 70v553l-361 735zM221 1704v8l191 186h8l190 -186v-8q-45 -15 -109 -80t-81 -113h-8
q-17 48 -81.5 113t-109.5 80zM700 1704v8l191 186h8l191 -186v-8q-45 -15 -109.5 -80t-81.5 -113h-8q-17 48 -81.5 113t-109.5 80z" />
    <glyph glyph-name="circumflex" unicode="&#x2c6;" horiz-adv-x="819" 
d="M29 1169q61 40 162.5 137t152.5 169h131q51 -71 153.5 -168.5t162.5 -137.5l-5 -6l-376 119l-377 -119z" />
    <glyph glyph-name="tilde" unicode="&#x2dc;" horiz-adv-x="819" 
d="M39 1241l166 225q29 4 55 4q58 0 109.5 -12.5t83.5 -28t75.5 -28t87.5 -12.5q101 0 158 59l6 -4l-166 -225q-36 -5 -55 -5q-73 0 -134 20.5t-114.5 41t-107.5 20.5q-101 0 -158 -59z" />
    <glyph glyph-name="uni2000" unicode="&#x2000;" horiz-adv-x="958" 
 />
    <glyph glyph-name="uni2001" unicode="&#x2001;" horiz-adv-x="1917" 
 />
    <glyph glyph-name="uni2002" unicode="&#x2002;" horiz-adv-x="958" 
 />
    <glyph glyph-name="uni2003" unicode="&#x2003;" horiz-adv-x="1917" 
 />
    <glyph glyph-name="uni2004" unicode="&#x2004;" horiz-adv-x="639" 
 />
    <glyph glyph-name="uni2005" unicode="&#x2005;" horiz-adv-x="479" 
 />
    <glyph glyph-name="uni2006" unicode="&#x2006;" horiz-adv-x="319" 
 />
    <glyph glyph-name="uni2007" unicode="&#x2007;" horiz-adv-x="319" 
 />
    <glyph glyph-name="uni2008" unicode="&#x2008;" horiz-adv-x="239" 
 />
    <glyph glyph-name="uni2009" unicode="&#x2009;" horiz-adv-x="383" 
 />
    <glyph glyph-name="uni200A" unicode="&#x200a;" horiz-adv-x="106" 
 />
    <glyph glyph-name="uni2010" unicode="&#x2010;" horiz-adv-x="1071" 
d="M72 512v8l135 217h792v-8l-135 -217h-792z" />
    <glyph glyph-name="uni2011" unicode="&#x2011;" horiz-adv-x="1071" 
d="M72 512v8l135 217h792v-8l-135 -217h-792z" />
    <glyph glyph-name="figuredash" unicode="&#x2012;" horiz-adv-x="1071" 
d="M72 512v8l135 217h792v-8l-135 -217h-792z" />
    <glyph glyph-name="endash" unicode="&#x2013;" horiz-adv-x="1374" 
d="M72 512v8l135 217h1096v-8l-136 -217h-1095z" />
    <glyph glyph-name="emdash" unicode="&#x2014;" horiz-adv-x="1701" 
d="M72 537v8l106 168h1452v-8l-106 -168h-1452z" />
    <glyph glyph-name="quoteleft" unicode="&#x2018;" horiz-adv-x="565" 
d="M98 1108v8l262 510l9 -4q-27 -111 -27 -197q0 -203 125 -309v-8l-180 -176h-8z" />
    <glyph glyph-name="quoteright" unicode="&#x2019;" horiz-adv-x="565" 
d="M98 1442v8l181 176h8l180 -176v-8l-262 -510l-8 4q26 107 26 197q0 203 -125 309z" />
    <glyph glyph-name="quotesinglbase" unicode="&#x201a;" horiz-adv-x="565" 
d="M98 172v8l181 176h8l180 -176v-8l-262 -510l-8 4q26 107 26 197q0 203 -125 309z" />
    <glyph glyph-name="quotedblleft" unicode="&#x201c;" horiz-adv-x="1028" 
d="M98 1108v8l262 510l9 -4q-27 -111 -27 -197q0 -203 125 -309v-8l-180 -176h-8zM561 1108v8l262 510l8 -4q-26 -107 -26 -197q0 -203 125 -309v-8l-180 -176h-9z" />
    <glyph glyph-name="quotedblright" unicode="&#x201d;" horiz-adv-x="1028" 
d="M98 1442v8l181 176h8l180 -176v-8l-262 -510l-8 4q26 107 26 197q0 203 -125 309zM561 1442v8l180 176h9l180 -176v-8l-262 -510l-9 4q27 111 27 197q0 203 -125 309z" />
    <glyph glyph-name="quotedblbase" unicode="&#x201e;" horiz-adv-x="1028" 
d="M98 172v8l181 176h8l180 -176v-8l-262 -510l-8 4q26 107 26 197q0 203 -125 309zM561 172v8l180 176h9l180 -176v-8l-262 -510l-9 4q27 111 27 197q0 203 -125 309z" />
    <glyph glyph-name="bullet" unicode="&#x2022;" horiz-adv-x="749" 
d="M102 629v8l269 342h8l268 -342v-8q-106 -31 -165.5 -100t-102.5 -181h-8q-43 112 -103 181t-166 100z" />
    <glyph glyph-name="ellipsis" unicode="&#x2026;" horiz-adv-x="1781" 
d="M102 166v8q45 15 109.5 80t81.5 113h8q17 -48 81.5 -113t109.5 -80v-8l-191 -186h-8zM696 166v8q45 15 109.5 80t81.5 113h8q17 -48 81 -113t109 -80v-8l-190 -186h-8zM1290 166v8q45 15 109.5 80t81.5 113h8q17 -48 81 -113t109 -80v-8l-190 -186h-8z" />
    <glyph glyph-name="uni202F" unicode="&#x202f;" horiz-adv-x="383" 
 />
    <glyph glyph-name="guilsinglleft" unicode="&#x2039;" horiz-adv-x="585" 
d="M72 508v8q186 142 377 406h40l5 -9l-150 -401l150 -401l-5 -9h-40q-191 264 -377 406z" />
    <glyph glyph-name="guilsinglright" unicode="&#x203a;" horiz-adv-x="585" 
d="M92 111l150 401l-150 401l4 9h41q191 -264 377 -406v-8q-186 -142 -377 -406h-41z" />
    <glyph glyph-name="uni205F" unicode="&#x205f;" horiz-adv-x="479" 
 />
    <glyph glyph-name="Euro" unicode="&#x20ac;" horiz-adv-x="1177" 
d="M20 518v8l181 115h14q-2 25 -2 76q0 59 2 88h-195v8l181 115h28q42 251 184.5 388.5t348.5 137.5q96 0 189.5 -31t164.5 -88l-41 -321h-8q-47 165 -122.5 251.5t-172.5 86.5q-116 0 -169.5 -98t-67.5 -326h415v-8l-180 -115h-240v-164h420v-8l-180 -115h-235
q11 -235 58.5 -335.5t168.5 -100.5q114 0 188 95t125 272h8l43 -351q-77 -57 -177.5 -87.5t-194.5 -30.5q-207 0 -347.5 141t-179.5 397h-207z" />
    <glyph glyph-name="trademark" unicode="&#x2122;" horiz-adv-x="991" 
d="M31 1280v154h370v-154h-8q-21 106 -92 106h-33v-344l56 -20v-8h-215v8l53 20v344h-33q-39 0 -61 -30.5t-29 -75.5h-8zM420 1014v8l45 20v363l-45 20v9h135l113 -254h8l112 254h152v-9l-47 -20v-363l47 -20v-8h-152v252h-8l-118 -277h-9l-118 266h-9v-241h-106z" />
    <glyph glyph-name="uni25FC" unicode="&#x25fc;" horiz-adv-x="1105" 
d="M0 0v1106h1106v-1106h-1106z" />
    <glyph glyph-name="uniFB01" unicode="&#xfb01;" horiz-adv-x="1589" 
d="M92 0v8l113 70v950l-113 70v8h780v-338h-8q-11 40 -22 67.5t-33.5 59.5t-52 52t-78 33t-111.5 13h-65v-379h301v-8l-119 -104h-182v-258q0 -48 11 -87t28 -63t41.5 -42.5t46 -27.5t47.5 -16v-8h-584zM975 0v8l112 70v950l-112 70v8h522v-8l-113 -70v-950l113 -70v-8h-522
z" />
    <glyph glyph-name="uniFB02" unicode="&#xfb02;" horiz-adv-x="1802" 
d="M92 0v8l113 70v950l-113 70v8h780v-338h-8q-11 40 -22 67.5t-33.5 59.5t-52 52t-78 33t-111.5 13h-65v-379h301v-8l-119 -104h-182v-258q0 -48 11 -87t28 -63t41.5 -42.5t46 -27.5t47.5 -16v-8h-584zM975 0v8l112 70v950l-112 70v8h584v-8l-175 -70v-905h123
q63 0 109 17.5t76 53.5t47 70.5t35 89.5h8v-354h-807z" />
    </font>
</defs>
</svg>
