<!DOCTYPE svg PUBLIC "-//W3C//DTD SVG 20010904//EN" "http://www.w3.org/TR/2001/REC-SVG-20010904/DTD/svg10.dtd">
<svg version="1.0" xmlns="http://www.w3.org/2000/svg" width="1030px" height="765px" viewBox="0 0 10300 7650" preserveAspectRatio="xMidYMid meet">
<g id="layer101" fill="#002255" stroke="none">
 <path d="M7315 7636 c-45 -19 -60 -43 -61 -99 l-2 -51 -104 -39 c-122 -45 -149 -51 -349 -73 -101 -11 -248 -18 -424 -19 -277 -2 -325 -7 -444 -49 -56 -20 -85 -20 -117 1 -32 21 -201 30 -261 14 -22 -6 -64 -27 -91 -46 -46 -31 -55 -34 -100 -28 -34 4 -66 0 -98 -11 -62 -21 -64 -21 -64 10 0 30 -17 64 -39 81 -25 18 -128 33 -233 33 -82 0 -97 -3 -113 -20 -22 -25 -30 -25 -63 -1 -15 10 -52 27 -82 37 -49 17 -86 19 -320 19 -146 0 -281 -3 -301 -8 -92 -19 -114 -92 -56 -187 27 -46 42 -60 97 -87 40 -20 94 -37 140 -44 55 -8 105 -25 188 -65 l114 -55 -38 -42 c-65 -72 -144 -137 -207 -169 -150 -75 -282 -187 -339 -285 -22 -39 -45 -62 -89 -88 -51 -31 -63 -45 -89 -101 -17 -35 -32 -64 -34 -64 -2 0 -100 96 -218 213 -206 204 -251 256 -297 342 l-21 39 77 41 c42 22 86 52 96 67 19 26 19 27 -1 70 -12 23 -41 66 -65 93 l-45 50 24 28 c28 33 30 54 9 104 -16 38 -92 143 -104 143 -4 0 -5 -31 -3 -69 l4 -68 -75 -32 c-209 -87 -880 -322 -959 -336 -28 -5 -40 -3 -56 13 -18 18 -42 78 -57 146 -4 18 -10 25 -15 20 -15 -15 -33 -211 -25 -280 7 -72 30 -98 92 -110 l34 -6 -6 -62 c-4 -37 -2 -79 5 -105 10 -39 17 -45 68 -68 44 -21 71 -26 129 -26 73 1 74 1 331 126 141 68 267 128 279 131 29 9 65 -40 142 -194 56 -112 58 -118 70 -240 7 -69 21 -181 30 -250 l17 -125 -471 4 c-453 3 -974 -9 -1255 -30 -286 -20 -404 -39 -685 -107 -127 -30 -167 -36 -260 -36 -201 1 -415 60 -503 137 l-22 20 0 -64 c0 -121 46 -226 140 -319 48 -49 67 -60 144 -85 l90 -30 75 -113 c102 -151 163 -217 322 -347 166 -135 438 -370 584 -504 97 -89 110 -98 113 -78 5 38 -54 184 -121 302 l-62 110 74 -37 c78 -39 344 -148 362 -148 11 0 -4 28 -87 158 -30 45 -50 82 -46 82 4 -1 65 -29 135 -63 l128 -62 -117 -150 c-64 -82 -141 -186 -170 -230 -30 -44 -89 -126 -133 -181 -96 -125 -209 -313 -250 -415 -63 -158 -162 -522 -190 -699 -11 -69 -24 -316 -41 -830 -11 -313 -26 -578 -36 -635 l-5 -30 36 40 c75 85 215 324 383 660 50 99 93 173 95 165 3 -8 10 -60 16 -115 34 -297 105 -657 148 -738 22 -44 662 -823 1051 -1280 142 -167 152 -173 152 -92 0 102 -49 248 -166 501 -148 320 -204 454 -204 492 0 2 80 -72 178 -164 507 -483 711 -661 990 -863 l113 -82 29 30 c39 38 39 77 1 170 -37 91 -78 157 -309 491 -105 151 -190 276 -189 277 1 1 34 -14 72 -32 90 -43 237 -94 450 -155 94 -27 217 -65 275 -83 58 -19 333 -92 613 -161 279 -70 513 -129 521 -132 20 -8 36 46 26 88 -14 58 -27 84 -54 101 -14 10 -137 75 -274 146 -246 127 -384 203 -379 208 4 3 847 -75 965 -90 139 -18 142 -9 41 128 -36 49 -40 52 -145 85 -126 39 -341 125 -499 200 l-110 51 115 -6 c117 -6 275 -23 658 -70 117 -15 216 -24 219 -21 3 3 -2 27 -12 53 -23 62 -87 126 -145 145 -25 8 -97 32 -160 53 -171 56 -537 189 -600 218 -66 29 -64 30 110 47 234 23 482 68 495 91 3 4 -12 13 -32 19 -179 58 -536 215 -596 263 l-28 22 78 2 c146 5 403 51 490 89 l38 16 -30 10 c-201 68 -495 209 -495 237 0 4 24 13 53 20 28 8 102 33 162 56 61 23 135 50 165 60 55 18 86 35 61 35 -25 0 -161 69 -238 121 -68 45 -210 162 -367 302 l-50 44 75 6 c51 4 114 20 204 52 72 25 134 50 138 54 5 5 -14 16 -42 26 -67 22 -134 74 -210 163 l-62 72 35 0 c71 0 276 60 276 81 0 5 -3 9 -7 9 -5 0 -78 39 -163 86 -334 185 -475 300 -553 452 -50 97 -129 273 -125 277 2 2 24 -1 50 -7 36 -9 51 -8 63 2 16 13 55 128 55 164 0 36 20 46 88 46 61 0 66 -2 115 -43 115 -97 249 -172 353 -198 30 -8 78 -34 126 -70 85 -63 118 -74 184 -64 120 18 166 68 146 160 l-8 40 47 16 c25 9 72 33 104 53 57 37 57 37 96 22 45 -18 146 -21 201 -6 20 6 49 25 63 42 23 27 26 39 23 79 -6 61 -28 94 -89 131 -36 23 -49 37 -49 54 0 13 2 24 5 24 3 0 49 -22 103 -49 134 -67 178 -78 321 -85 131 -5 146 2 46 23 -74 16 -220 72 -300 116 -33 18 -92 42 -131 54 -40 12 -93 33 -120 48 -26 15 -70 32 -98 38 l-51 12 33 17 c40 21 151 46 207 46 25 0 65 13 109 35 60 31 78 35 142 35 90 0 232 -46 360 -115 46 -26 84 -41 84 -34 0 19 -112 122 -171 157 -124 73 -147 77 -410 74 -260 -4 -323 3 -437 49 -61 24 -88 29 -155 29 -88 0 -206 -23 -338 -65 -45 -14 -83 -24 -85 -22 -2 1 1 20 6 42 19 82 12 139 -35 271 -24 70 -42 131 -38 137 4 6 21 24 39 39 18 16 36 38 39 49 4 11 32 35 62 55 74 47 159 128 190 182 24 41 25 49 19 140 -3 53 -9 117 -12 143 l-6 45 73 59 c41 33 157 141 259 241 186 182 231 217 266 208 11 -3 46 -1 79 5 56 9 64 7 120 -20 112 -54 329 -64 446 -20 31 12 110 53 175 92 117 69 316 160 383 174 31 7 38 3 90 -47 103 -100 137 -121 200 -126 50 -4 61 -1 89 22 38 33 113 126 175 219 40 60 44 72 36 95 -8 22 -4 34 26 81 20 31 52 89 72 130 40 84 42 141 6 190 -20 26 -22 26 -154 28 -94 2 -143 -1 -164 -11z m-4055 -583 c0 -36 -36 -69 -106 -96 -39 -15 -43 -15 -56 1 -32 37 -29 41 52 87 44 26 83 51 86 57 10 16 24 -13 24 -49z m-366 -164 c15 -12 24 -25 19 -30 -13 -12 -499 -204 -581 -229 -80 -24 -122 -18 -122 17 0 14 16 22 68 34 52 13 344 130 547 219 31 13 40 12 69 -11z"/>
 <path d="M5998 5994 c-14 -13 -9 -40 10 -58 16 -14 28 -15 89 -6 38 5 81 13 94 18 21 8 18 11 -35 26 -71 21 -148 31 -158 20z"/>
 <path d="M7205 5850 c-10 -16 3 -28 36 -35 38 -9 58 13 32 33 -20 14 -59 16 -68 2z"/>
 <path d="M7676 5325 c-9 -24 29 -55 68 -55 61 0 59 40 -3 59 -50 14 -58 14 -65 -4z"/>
 <path d="M10250 5010 c0 -11 7 -23 16 -27 20 -8 36 17 22 34 -16 20 -38 15 -38 -7z"/>
 <path d="M6395 4476 c-11 -8 -16 -19 -12 -30 5 -13 21 -16 78 -16 79 0 86 11 29 42 -41 21 -69 23 -95 4z"/>
 <path d="M6530 4311 c0 -13 29 -41 43 -41 6 0 31 7 55 17 30 11 39 19 30 24 -18 12 -128 11 -128 0z"/>
 <path d="M6813 3813 c-29 -4 -33 -8 -33 -33 0 -44 27 -54 136 -47 90 5 94 4 139 -24 26 -17 61 -33 79 -36 l31 -6 -41 31 c-23 17 -54 47 -69 66 -39 51 -110 65 -242 49z"/>
 <path d="M9037 3773 c-15 -15 -6 -43 13 -43 11 0 20 6 20 14 0 17 -24 38 -33 29z"/>
 <path d="M5301 3472 c-7 -17 -11 -39 -9 -49 4 -23 49 -23 130 0 47 13 70 14 123 5 37 -5 68 -8 71 -5 2 2 -28 19 -68 37 -59 27 -89 35 -154 38 l-81 4 -12 -30z"/>
 <path d="M8631 3346 c-8 -10 -6 -20 10 -40 18 -23 26 -26 53 -20 55 12 76 23 70 37 -12 33 -110 50 -133 23z"/>
 <path d="M6163 2992 c-25 -16 -73 -86 -73 -107 0 -21 7 -24 63 -31 89 -11 159 -6 235 18 47 14 81 19 116 14 l49 -5 -19 21 c-26 28 -74 47 -105 41 -15 -3 -76 9 -136 26 -122 35 -114 33 -130 23z"/>
 <path d="M7929 2952 c-14 -12 -20 -25 -16 -35 5 -14 21 -17 83 -17 86 0 93 11 28 47 -48 28 -65 28 -95 5z"/>
 <path d="M5519 2243 c-5 -13 -9 -36 -9 -50 0 -24 3 -25 35 -20 20 3 61 18 93 33 l57 27 -40 12 c-22 7 -59 15 -83 18 -39 5 -44 3 -53 -20z"/>
 </g>
<g id="layer102" fill="#ff6600" stroke="none">
 <path d="M3188 7321 l4 -68 -75 -32 c-209 -87 -880 -322 -959 -336 -28 -5 -40 -3 -56 13 -18 18 -42 78 -57 146 -4 18 -10 25 -15 20 -15 -15 -33 -211 -25 -280 7 -72 30 -98 92 -110 l34 -6 -6 -62 c-4 -37 -2 -79 5 -105 10 -39 17 -45 68 -68 44 -21 71 -26 129 -26 73 1 74 1 331 126 141 68 267 128 279 131 29 9 65 -40 142 -194 56 -112 58 -118 70 -240 7 -69 21 -181 30 -250 l17 -125 -471 4 c-453 3 -974 -9 -1255 -30 -286 -20 -404 -39 -685 -107 -127 -30 -167 -36 -260 -36 -201 1 -415 60 -503 137 l-22 20 0 -64 c0 -121 46 -226 140 -319 48 -49 67 -60 144 -85 l90 -30 75 -113 c102 -151 163 -217 322 -347 162 -133 436 -369 579 -499 58 -53 108 -96 112 -96 30 0 -32 170 -115 315 l-62 110 74 -37 c98 -49 352 -150 359 -143 7 7 -11 39 -84 153 -30 45 -50 82 -46 82 4 -1 65 -29 135 -63 l128 -62 -117 -150 c-64 -82 -141 -186 -170 -230 -30 -44 -89 -126 -133 -181 -96 -125 -209 -313 -250 -415 -63 -158 -162 -522 -190 -699 -11 -69 -24 -317 -41 -830 -6 -173 -15 -376 -20 -450 -6 -74 -10 -151 -10 -170 l1 -35 29 35 c75 87 217 333 378 655 50 99 93 173 95 165 3 -8 10 -60 16 -115 34 -297 105 -657 148 -738 20 -39 242 -311 764 -937 427 -511 413 -495 427 -486 25 15 8 139 -40 286 -11 36 -63 155 -114 266 -148 320 -204 454 -204 492 0 2 80 -72 178 -164 507 -483 711 -661 990 -863 l113 -82 29 30 c39 38 39 77 1 170 -37 91 -78 157 -309 491 -105 151 -190 276 -189 277 1 1 34 -14 72 -32 90 -43 237 -94 450 -155 94 -27 217 -65 275 -83 58 -19 333 -92 613 -161 279 -70 513 -129 521 -132 20 -8 36 46 26 88 -14 58 -27 84 -54 101 -14 10 -137 75 -274 146 -246 127 -384 203 -379 208 4 3 847 -75 965 -90 139 -18 142 -9 41 128 -36 49 -40 52 -145 85 -126 39 -341 125 -499 200 l-110 51 115 -6 c117 -6 275 -23 658 -70 117 -15 216 -24 219 -21 3 3 -2 27 -12 53 -23 62 -87 126 -145 145 -25 8 -97 32 -160 53 -171 56 -537 189 -600 218 -66 29 -64 30 110 47 257 25 495 71 487 93 -2 6 -16 15 -33 20 -85 28 -369 143 -457 187 -107 53 -184 106 -139 97 82 -18 572 69 572 102 0 4 -46 24 -102 45 -171 63 -408 182 -408 205 0 4 24 13 53 21 28 7 108 34 177 60 69 27 144 54 168 61 23 6 42 15 42 19 0 3 -33 21 -74 39 -129 57 -262 155 -531 394 l-49 44 71 5 c78 6 346 93 340 111 -1 5 -24 18 -51 28 -64 24 -119 69 -195 157 l-62 72 35 0 c71 0 276 60 276 81 0 5 -3 9 -7 9 -15 0 -320 173 -415 235 -53 35 -134 99 -178 141 -84 80 -116 134 -228 380 -32 71 -32 71 -94 94 -35 12 -68 25 -74 27 -6 2 -29 -20 -51 -49 -103 -137 -154 -163 -300 -156 -114 6 -178 32 -233 94 -40 46 -78 127 -82 174 l-3 35 105 7 c58 4 134 13 170 21 62 13 67 12 115 -9 66 -30 92 -30 35 0 l-44 24 204 7 c137 5 232 3 287 -4 73 -11 91 -10 174 10 108 26 100 37 -26 38 -92 1 -301 53 -387 97 l-51 26 51 19 c29 10 74 27 102 37 l49 19 -37 17 c-20 10 -72 21 -115 26 -97 10 -113 22 -72 56 69 57 77 65 73 69 -2 2 -23 -3 -48 -11 -24 -8 -59 -14 -79 -12 -33 3 -36 6 -39 38 -4 53 16 81 75 105 74 29 75 36 7 34 -106 -3 -128 16 -88 75 33 48 58 60 129 62 55 1 145 28 145 43 0 3 -28 4 -62 3 -37 -3 -102 4 -162 17 -56 11 -146 28 -201 36 -126 20 -145 31 -145 90 0 121 39 130 228 50 44 -18 85 -27 136 -29 55 -3 84 -9 110 -25 53 -33 44 -12 -24 53 -64 61 -66 77 -15 90 13 3 36 11 51 16 l26 10 -47 42 c-46 41 -47 43 -41 87 3 25 17 67 30 93 l25 47 -61 33 c-72 38 -135 98 -246 235 -45 56 -150 166 -232 245 -147 139 -212 215 -257 300 l-23 42 77 41 c42 22 86 52 96 67 19 26 19 27 -1 70 -12 23 -41 66 -65 93 l-45 50 24 28 c28 33 30 54 9 104 -16 38 -92 143 -104 143 -4 0 -5 -31 -3 -69z m72 -268 c0 -36 -36 -69 -106 -96 -39 -15 -43 -15 -56 1 -32 37 -29 41 52 87 44 26 83 51 86 57 10 16 24 -13 24 -49z m-366 -164 c15 -12 24 -25 19 -30 -13 -12 -499 -204 -581 -229 -80 -24 -122 -18 -122 17 0 14 16 22 68 34 52 13 344 130 547 219 31 13 40 12 69 -11z"/>
 <path d="M5997 5993 c-13 -12 -7 -40 11 -57 17 -14 28 -15 92 -6 80 11 116 25 90 34 -75 27 -179 43 -193 29z"/>
 <path d="M7205 5850 c-10 -16 3 -28 36 -35 38 -9 58 13 32 33 -20 14 -59 16 -68 2z"/>
 <path d="M7676 5325 c-9 -24 29 -55 68 -55 61 0 59 40 -3 59 -50 14 -58 14 -65 -4z"/>
 <path d="M5105 5275 c-55 -13 -131 -34 -168 -47 l-68 -23 -29 -85 c-15 -47 -26 -88 -24 -92 2 -3 18 -9 35 -13 16 -4 84 -43 151 -87 l121 -80 64 12 c59 10 184 2 245 -16 11 -3 21 4 30 23 19 40 134 105 173 97 55 -11 11 17 -47 31 l-53 12 33 17 c40 21 151 46 207 46 25 0 65 13 109 35 60 31 78 35 142 35 90 0 232 -46 360 -115 46 -26 84 -41 84 -34 0 19 -112 122 -171 157 -124 73 -147 77 -410 74 -260 -4 -323 3 -437 49 -95 37 -200 39 -347 4z"/>
 <path d="M10250 5010 c0 -11 7 -23 16 -27 20 -8 36 17 22 34 -16 20 -38 15 -38 -7z"/>
 <path d="M5748 4890 c4 -26 16 -35 111 -83 140 -72 186 -85 309 -89 108 -4 130 4 60 22 -79 20 -188 62 -275 106 -78 40 -169 74 -198 74 -7 0 -10 -12 -7 -30z"/>
 <path d="M6395 4476 c-11 -8 -16 -19 -12 -30 5 -13 21 -16 78 -16 79 0 86 11 29 42 -41 21 -69 23 -95 4z"/>
 <path d="M6530 4311 c0 -14 29 -41 44 -41 26 0 87 31 81 40 -8 13 -125 13 -125 1z"/>
 <path d="M6813 3813 c-29 -4 -33 -8 -33 -33 0 -44 27 -54 136 -47 89 5 95 4 137 -23 24 -15 55 -31 68 -35 36 -12 -85 117 -125 132 -30 11 -116 14 -183 6z"/>
 <path d="M9037 3773 c-15 -15 -6 -43 13 -43 11 0 20 6 20 14 0 17 -24 38 -33 29z"/>
 <path d="M5301 3472 c-7 -17 -11 -39 -9 -49 4 -23 49 -23 130 0 46 13 70 14 119 6 34 -5 63 -8 66 -5 2 2 -26 19 -62 37 -55 27 -82 33 -149 37 l-83 4 -12 -30z"/>
 <path d="M8631 3346 c-8 -10 -6 -20 10 -40 18 -23 26 -26 53 -20 55 12 76 23 70 37 -12 33 -110 50 -133 23z"/>
 <path d="M6163 2992 c-25 -16 -73 -86 -73 -107 0 -21 7 -24 63 -31 89 -11 159 -6 235 18 43 13 82 18 110 15 l44 -5 -31 31 c-26 27 -38 31 -74 29 -24 -1 -91 12 -148 28 -116 34 -110 32 -126 22z"/>
 <path d="M7929 2952 c-14 -12 -20 -25 -16 -35 5 -14 21 -17 83 -17 86 0 93 11 28 47 -48 28 -65 28 -95 5z"/>
 <path d="M5520 2244 c-6 -14 -10 -37 -10 -51 0 -24 3 -25 34 -20 42 7 136 47 136 58 0 9 -51 24 -113 32 -34 5 -39 3 -47 -19z"/>
 </g>

</svg>