<!DOCTYPE svg PUBLIC "-//W3C//DTD SVG 20010904//EN" "http://www.w3.org/TR/2001/REC-SVG-20010904/DTD/svg10.dtd">
<svg version="1.0" xmlns="http://www.w3.org/2000/svg" width="536px" height="636px" viewBox="0 0 5360 6360" preserveAspectRatio="xMidYMid meet">
<g id="layer101" fill="#EBCE38" stroke="none">
 <path d="M109 6340 c-19 -10 -52 -37 -72 -59 l-37 -41 0 -263 c0 -233 2 -266 19 -303 21 -47 77 -127 138 -200 38 -45 41 -53 28 -64 -23 -19 -12 -58 56 -195 90 -182 183 -275 276 -275 45 0 120 36 222 107 35 24 67 41 71 36 4 -4 55 -72 113 -149 74 -98 107 -150 107 -168 0 -52 22 -122 70 -221 63 -129 133 -208 229 -259 75 -39 215 -75 294 -76 39 0 47 -3 47 -19 0 -10 7 -35 15 -55 14 -34 18 -36 59 -36 48 0 45 5 62 -93 8 -45 35 -67 84 -67 36 0 36 0 93 -117 33 -69 78 -142 106 -175 55 -64 50 -41 71 -303 6 -77 16 -185 22 -240 6 -55 13 -143 17 -195 l6 -95 73 -3 72 -3 21 36 c13 22 29 35 41 35 11 0 36 14 56 31 33 30 37 31 47 14 5 -10 22 -33 38 -50 l27 -33 -40 -68 c-22 -38 -43 -83 -46 -100 -6 -31 -7 -31 -42 -23 -21 5 -92 9 -158 9 l-122 0 -87 78 c-47 42 -103 89 -122 105 -85 65 -182 11 -248 -138 -27 -59 -25 -207 3 -306 l22 -75 -25 -72 c-20 -57 -26 -95 -28 -182 l-2 -110 -40 0 c-58 0 -108 -17 -134 -44 -29 -31 -51 -115 -51 -197 0 -75 13 -120 47 -165 22 -29 23 -35 12 -85 -17 -79 -6 -197 24 -263 31 -66 80 -103 159 -115 30 -5 113 -32 185 -60 71 -27 163 -59 203 -70 40 -11 74 -22 76 -24 2 -2 -18 -30 -45 -63 -55 -68 -85 -120 -78 -139 7 -16 213 -73 347 -95 79 -13 104 -20 101 -31 -11 -47 -12 -222 -1 -270 28 -117 105 -222 210 -283 83 -48 122 -56 281 -56 139 0 147 1 224 33 161 65 292 176 348 294 30 63 32 75 32 173 0 58 -4 122 -8 143 -7 32 -12 37 -35 37 -48 0 -71 12 -91 45 -18 31 -19 38 -6 92 8 32 14 66 15 75 0 26 -28 48 -62 48 -21 0 -31 6 -35 20 -3 11 -9 20 -14 20 -12 0 -59 46 -59 58 0 5 21 13 48 17 61 9 140 47 176 84 31 32 45 81 46 157 0 44 4 54 35 84 52 51 79 144 73 258 -5 93 -28 161 -80 239 -22 33 -28 53 -28 98 0 50 3 59 35 91 20 19 49 60 67 90 l31 55 86 -4 c47 -2 124 -12 171 -23 69 -15 128 -18 320 -18 284 -1 431 19 640 86 137 44 277 130 303 185 6 14 28 33 48 44 21 10 50 35 66 56 27 35 28 40 27 152 -1 126 -25 234 -64 283 -20 26 -84 48 -135 48 -17 0 -37 11 -54 29 -36 38 -156 104 -586 318 -442 221 -503 259 -592 366 -37 45 -98 114 -136 154 l-69 72 30 43 c43 63 108 195 126 257 20 69 20 144 0 186 -21 46 -86 89 -119 81 -61 -15 -451 -304 -499 -369 -19 -25 -21 -46 -24 -194 l-4 -165 -24 23 c-13 12 -41 48 -61 78 -79 117 -224 300 -275 346 -104 94 -359 245 -415 245 -27 0 -35 9 -67 74 -48 95 -110 130 -253 143 -68 5 -73 8 -73 29 0 48 -176 180 -519 390 -324 198 -435 286 -698 547 -211 210 -223 223 -229 267 -4 25 -15 74 -26 108 -16 54 -30 74 -83 127 -35 35 -101 90 -145 124 -81 61 -82 61 -148 61 -46 -1 -78 -7 -103 -20z"/>
 </g>

</svg>